<?xml version="1.0" ?>
<svg xmlns="http://www.w3.org/2000/svg" xmlns:xlink="http://www.w3.org/1999/xlink" style="display:none">
	<style type="text/css">
		.i {display:none;}
		.i:target {display:block;}
	</style>
	<symbol class="i" id="reload" width="100%" height="100%" viewBox="0 0 16 16">
		<path class="b" d="M15.8 0.9c-0.1-0.1-0.3-0.2-0.5-0.2S15 0.7 14.9 0.9l-1.4 1.3C12.8 1.5 11.9 1 11 0.6C10 0.2 9 0 8 0 C6.1 0 4.4 0.6 3 1.7C1.6 2.9 0.6 4.4 0.2 6.3v0.1c0 0.1 0 0.2 0.1 0.2s0.1 0.1 0.2 0.1h2.1c0.2 0 0.3-0.1 0.3-0.2 c0.3-0.7 0.5-1.1 0.6-1.2c0.5-0.8 1.1-1.4 1.9-1.9C6.2 2.9 7.1 2.7 8 2.7c1.4 0 2.6 0.5 3.6 1.4l-1.4 1.4C10.1 5.7 10 5.8 10 6 s0.1 0.3 0.2 0.5c0.1 0.1 0.3 0.2 0.5 0.2h4.7c0.2 0 0.3-0.1 0.5-0.2C15.9 6.3 16 6.2 16 6V1.3C16 1.2 15.9 1 15.8 0.9z"/>
		<path class="b" d="M15.4 9.3h-2c-0.2 0-0.3 0.1-0.3 0.2c-0.3 0.7-0.5 1.1-0.6 1.2c-0.5 0.8-1.1 1.4-1.9 1.9 c-0.8 0.5-1.7 0.7-2.6 0.7c-0.7 0-1.3-0.1-1.9-0.4c-0.6-0.3-1.2-0.6-1.7-1.1l1.4-1.4C5.9 10.3 6 10.2 6 10c0-0.2-0.1-0.3-0.2-0.5 C5.7 9.4 5.5 9.3 5.3 9.3H0.7c-0.2 0-0.3 0.1-0.5 0.2C0.1 9.7 0 9.8 0 10v4.7c0 0.2 0.1 0.3 0.2 0.5c0.1 0.1 0.3 0.2 0.5 0.2 s0.3-0.1 0.5-0.2l1.3-1.3C3.2 14.5 4.1 15 5 15.4C6 15.8 6.9 16 8 16c1.9 0 3.6-0.6 5-1.7c1.4-1.2 2.3-2.7 2.8-4.5c0 0 0 0 0-0.1 c0-0.1 0-0.2-0.1-0.2C15.6 9.4 15.5 9.3 15.4 9.3z"/>
	</symbol>
	<symbol class="i" id="edit" width="100%" height="100%" viewBox="0 0 16 16">
		<path class="b" d="M2.5 9.5l4 4l6.1-6.1c-0.2-0.9-0.7-1.8-1.4-2.6c-0.7-0.7-1.6-1.2-2.6-1.4L2.5 9.5z"/>
		<path class="b" d="M10.8 1.3L10.1 2c0.9 0.3 1.8 0.8 2.5 1.5c0.7 0.7 1.2 1.6 1.5 2.5l0.7-0.7c0.6-0.6 0.8-1.3 0.8-2 c0-0.7-0.3-1.5-0.8-2c-0.6-0.6-1.3-0.8-2-0.8C12 0.5 11.3 0.8 10.8 1.3z"/>
		<path class="b" d="M0.6 14.9L1 13.3l0.6-2.4l3.5 3.5l-2.4 0.6l-1.6 0.4c-0.2 0-0.3 0-0.5-0.1c-0.1-0.1-0.1-0.2-0.1-0.3 C0.6 15 0.6 14.9 0.6 14.9z"/>
	</symbol>
	<symbol class="i" id="delete" width="100%" height="100%" viewBox="0 0 16 16">
		<path class="b" d="M15.6 2.8c-0.1-0.1-0.1-0.1-0.2-0.1H12l-0.8-1.7c-0.1-0.3-0.3-0.5-0.6-0.7C10.4 0.1 10.1 0 9.8 0H6.4 C6.1 0 5.8 0.1 5.5 0.3C5.2 0.5 5.1 0.7 4.9 0.9L4.2 2.7H0.9c-0.1 0-0.2 0-0.2 0.1C0.6 2.8 0.5 2.9 0.5 3v0.7c0 0.1 0 0.2 0.1 0.2 C0.7 4 0.8 4 0.9 4h1v9.9c0 0.6 0.2 1.1 0.5 1.5C2.7 15.8 3.2 16 3.6 16h8.9c0.5 0 0.9-0.2 1.2-0.6c0.3-0.4 0.5-0.9 0.5-1.5V4h1 c0.1 0 0.2 0 0.2-0.1c0.1-0.1 0.1-0.1 0.1-0.2V3C15.7 2.9 15.6 2.8 15.6 2.8z M6.2 1.4c0.1-0.1 0.1-0.1 0.2-0.1h3.4 c0.1 0 0.1 0.1 0.2 0.1l0.5 1.2H5.7L6.2 1.4z M12.9 13.9c0 0.2 0 0.3-0.1 0.4c-0.1 0.1-0.1 0.2-0.2 0.3c-0.1 0.1-0.1 0.1-0.1 0.1 H3.6c0 0-0.1 0-0.1-0.1c-0.1-0.1-0.1-0.2-0.2-0.3c-0.1-0.1-0.1-0.3-0.1-0.4V4h9.6V13.9z"/>
		<path class="b" d="M5 12.7h0.7c0.1 0 0.2 0 0.2-0.1C6 12.5 6 12.4 6 12.3v-6c0-0.1 0-0.2-0.1-0.2C5.9 6 5.8 6 5.7 6H5 C4.9 6 4.8 6 4.8 6.1C4.7 6.2 4.7 6.2 4.7 6.3v6c0 0.1 0 0.2 0.1 0.2C4.8 12.6 4.9 12.7 5 12.7z"/>
		<path class="b" d="M7.7 12.7h0.7c0.1 0 0.2 0 0.2-0.1c0.1-0.1 0.1-0.1 0.1-0.2v-6c0-0.1 0-0.2-0.1-0.2C8.6 6 8.5 6 8.4 6H7.7 C7.6 6 7.6 6 7.5 6.1C7.4 6.2 7.4 6.2 7.4 6.3v6c0 0.1 0 0.2 0.1 0.2C7.6 12.6 7.6 12.7 7.7 12.7z"/>
		<path class="b" d="M10.5 12.7h0.7c0.1 0 0.2 0 0.2-0.1c0.1-0.1 0.1-0.1 0.1-0.2v-6c0-0.1 0-0.2-0.1-0.2C11.4 6 11.3 6 11.2 6 h-0.7c-0.1 0-0.2 0-0.2 0.1c-0.1 0.1-0.1 0.1-0.1 0.2v6c0 0.1 0 0.2 0.1 0.2C10.3 12.6 10.4 12.7 10.5 12.7z"/>
	</symbol>
	<symbol class="i" id="download" width="100%" height="100%" viewBox="0 0 16 16">
		<path class="b" d="M7.4 12.8c0.2 0.2 0.5 0.3 0.7 0.3c0.3 0 0.5-0.1 0.7-0.3l5.1-5.1c0.4-0.4 0.4-1 0-1.4c-0.4-0.4-1-0.4-1.4 0 L9.1 9.6V1c0-0.6-0.5-1-1-1c-0.6 0-1 0.5-1 1v8.6L3.7 6.2c-0.4-0.4-1-0.4-1.4 0c-0.4 0.4-0.4 1 0 1.4L7.4 12.8z M13.5 13.9H2.7 c-0.6 0-1 0.5-1 1c0 0.6 0.5 1 1 1h10.7c0.6 0 1-0.5 1-1C14.5 14.4 14 13.9 13.5 13.9z"/>
	</symbol>
	<symbol class="i" id="search" width="100%" height="100%" viewBox="0 0 16 16">
		<path class="t" d="M1.1 14.2L1.1 14.2c0.1-0.2 0.2-0.3 0.3-0.4l3.1-3.8C4.6 10 4.7 9.9 4.8 9.8C3 7.7 2.9 4.5 4.7 2.3 c2-2.5 5.8-2.9 8.3-0.9c2.5 2 2.9 5.8 0.9 8.3c-1.8 2.3-5 2.8-7.5 1.5c0 0.1-0.1 0.3-0.2 0.4l-2.6 3.4C3.2 15.5 2.7 16 2 15.9 C1.3 15.7 0.7 14.8 1.1 14.2L1.1 14.2z M6.6 9.3c1.8 1.5 4.5 1.2 6-0.6c1.5-1.8 1.2-4.5-0.6-6c-1.8-1.5-4.5-1.2-6 0.6 C4.5 5.2 4.8 7.9 6.6 9.3z"/>
	</symbol>
	<symbol class="i" id="close" width="100%" height="100%" viewBox="0 0 16 16">
		<path class="t" d="M14.1 3.3L12.8 2L8.1 6.7L3.4 2L2.1 3.3L6.8 8l-4.7 4.7L3.4 14l4.7-4.7l4.7 4.7l1.3-1.3L9.4 8L14.1 3.3z"/>
	</symbol>
	<symbol class="i" id="pointDown" width="100%" height="100%" viewBox="0 0 16 16">
		<path class="t" d="M15.7,5.1l-7.3,7.3c-0.1,0.1-0.3,0.2-0.4,0.2c-0.2,0-0.3-0.1-0.4-0.2L0.3,5.1C0.1,5,0.1,4.8,0.1,4.6c0-0.2,0.1-0.3,0.2-0.4l1.6-1.6C2,2.4,2.2,2.4,2.3,2.4c0.2,0,0.3,0.1,0.4,0.2L8,7.8l5.2-5.2c0.1-0.1,0.3-0.2,0.4-0.2c0.2,0,0.3,0.1,0.4,0.2l1.6,1.6c0.1,0.1,0.2,0.3,0.2,0.4C15.9,4.8,15.9,5,15.7,5.1z"/>
	</symbol>
	<symbol class="i" id="pointUp" width="100%" height="100%" viewBox="0 0 16 16">
		<path class="t" d="M0.3,9.5l7.3-7.3C7.7,2.1,7.8,2.1,8,2.1c0.2,0,0.3,0.1,0.4,0.2l7.3,7.3c0.1,0.1,0.2,0.3,0.2,0.4c0,0.2-0.1,0.3-0.2,0.4l-1.6,1.6c-0.1,0.1-0.3,0.2-0.4,0.2c-0.2,0-0.3-0.1-0.4-0.2L8,6.8l-5.2,5.2c-0.1,0.1-0.3,0.2-0.4,0.2c-0.2,0-0.3-0.1-0.4-0.2l-1.6-1.6c-0.1-0.1-0.2-0.3-0.2-0.4C0.1,9.8,0.1,9.7,0.3,9.5z"/>
	</symbol>
	<symbol class="i" id="pointRight" width="100%" height="100%" viewBox="0 0 16 16">
		<path class="t" d="M5.5,15.9c-0.2,0-0.3-0.1-0.4-0.2L3.4,14c-0.1-0.1-0.2-0.3-0.2-0.4c0-0.2,0.1-0.3,0.2-0.4l5.2-5.2L3.4,2.7C3.3,2.6,3.2,2.4,3.2,2.3c0-0.2,0.1-0.3,0.2-0.4L5,0.2C5.2,0.1,5.3,0,5.5,0c0.2,0,0.3,0.1,0.4,0.2l7.3,7.3c0.1,0.1,0.2,0.3,0.2,0.4c0,0.2-0.1,0.3-0.2,0.4l-7.3,7.3C5.8,15.8,5.7,15.9,5.5,15.9z"/>
	</symbol>
	<symbol class="i" id="pointLeft" width="100%" height="100%" viewBox="0 0 16 16">
		<path class="t" d="M10.1,15.7L2.8,8.4C2.6,8.2,2.6,8.1,2.6,7.9c0-0.2,0.1-0.3,0.2-0.4l7.3-7.3C10.2,0.1,10.3,0,10.5,0c0.2,0,0.3,0.1,0.4,0.2l1.6,1.6c0.1,0.1,0.2,0.3,0.2,0.4c0,0.2-0.1,0.3-0.2,0.4L7.3,7.9l5.2,5.2c0.1,0.1,0.2,0.3,0.2,0.4c0,0.2-0.1,0.3-0.2,0.4l-1.6,1.6c-0.1,0.1-0.3,0.2-0.4,0.2C10.3,15.9,10.2,15.8,10.1,15.7z"/>
	</symbol>
	<symbol class="i" id="facebook" width="100%" height="100%" viewBox="0 0 16 16">
		<path class="w" d="M11.2 5.9H9.1V4.4c0-0.5 0.5-0.6 0.7-0.6c0.2 0 1.4 0 1.4 0V1.7l-1.5 0C7.5 1.7 7 3.3 7 4.3 v1.7H5.5v2.1H7c0 2.7 0 5.8 0 5.8h2.1c0 0 0-3 0-5.8h1.8L11.2 5.9z"/>
	</symbol>
	<symbol class="i" id="twitter" width="100%" height="100%" viewBox="0 0 16 16">
		<path class="w" d="M14.8 4.5c-0.2 0.1-0.8 0.4-1.4 0.4c0.4-0.2 0.9-0.9 1.1-1.5C14.1 3.7 13.2 4 12.8 4 c0 0 0 0 0 0c-0.5-0.5-1.1-0.9-1.8-0.9c-1.4 0-2.5 1.2-2.5 2.8c0 0.2 0 0.4 0.1 0.6h0C6.6 6.5 4.4 5.5 3.1 3.7 C2.3 5.1 3 6.8 3.9 7.3C3.6 7.4 3 7.3 2.8 7c0 1 0.4 2.2 2 2.7C4.4 9.9 3.9 9.8 3.7 9.8c0.1 0.8 1.1 1.9 2.3 1.9 c-0.4 0.5-1.8 1.4-3.5 1.1C3.6 13.6 5 14 6.4 14c4.1 0 7.3-3.6 7.1-8c0 0 0 0 0 0c0 0 0 0 0 0c0 0 0 0 0 0 C13.9 5.6 14.4 5.1 14.8 4.5z"/>
	</symbol>
	<symbol class="i" id="twitter" width="100%" height="100%" viewBox="0 0 16 16">
		<path class="g" d="M14.8 4.5c-0.2 0.1-0.8 0.4-1.4 0.4c0.4-0.2 0.9-0.9 1.1-1.5C14.1 3.7 13.2 4 12.8 4 c0 0 0 0 0 0c-0.5-0.5-1.1-0.9-1.8-0.9c-1.4 0-2.5 1.2-2.5 2.8c0 0.2 0 0.4 0.1 0.6h0C6.6 6.5 4.4 5.5 3.1 3.7 C2.3 5.1 3 6.8 3.9 7.3C3.6 7.4 3 7.3 2.8 7c0 1 0.4 2.2 2 2.7C4.4 9.9 3.9 9.8 3.7 9.8c0.1 0.8 1.1 1.9 2.3 1.9 c-0.4 0.5-1.8 1.4-3.5 1.1C3.6 13.6 5 14 6.4 14c4.1 0 7.3-3.6 7.1-8c0 0 0 0 0 0c0 0 0 0 0 0c0 0 0 0 0 0 C13.9 5.6 14.4 5.1 14.8 4.5z"/>
		<path class="g" d="M15.2 4.4c-0.2 0.1-0.9 0.4-1.5 0.5c0.4-0.2 1-1 1.2-1.6c-0.4 0.3-1.3 0.7-1.7 0.7 c0 0 0 0 0 0C12.5 3.4 11.8 3 11 3C9.5 3 8.3 4.3 8.3 6c0 0.2 0 0.5 0.1 0.7h0C6.3 6.6 3.8 5.5 2.5 3.6c-0.8 1.6-0.1 3.3 0.8 4 c-0.3 0-0.9 0-1.2-0.3c0 1 0.4 2.4 2.1 2.9c-0.3 0.2-0.9 0.1-1.2 0.1c0.1 0.9 1.2 2 2.5 2c-0.4 0.6-2 1.6-3.8 1.2 c1.3 0.8 2.8 1.3 4.3 1.3c4.5 0 7.9-3.9 7.8-8.7c0 0 0 0 0 0c0 0 0 0 0 0c0 0 0 0 0 0C14.2 5.7 14.8 5.1 15.2 4.4z"/>
	</symbol>
	<symbol class="i" id="google" width="100%" height="100%" viewBox="0 0 16 16">
		<path class="st0" d="M0.1 7.9c0-2.6 2.4-4.9 5-4.8C6.4 3 7.6 3.6 8.5 4.3C8.1 4.8 7.7 5.2 7.2 5.7c-1.1-0.8-2.8-1-3.9-0.1 c-1.6 1.1-1.7 3.8-0.1 5C4.7 12 7.6 11.3 8 9.1c-1 0-1.9 0-2.9 0c0-0.6 0-1.1 0-1.7c1.6 0 3.2 0 4.8 0c0.1 1.3-0.1 2.8-0.9 3.9 c-1.2 1.8-3.8 2.3-5.7 1.5C1.4 12.1 0 10 0.1 7.9"/>
		<path class="st0" d="M13.1 6h1.4c0 0.5 0 1 0 1.4c0.5 0 1 0 1.4 0v1.4c-0.5 0-1 0-1.4 0c0 0.5 0 1 0 1.4h-1.4c0-0.5 0-1 0-1.4 c-0.5 0-1 0-1.4 0V7.4c0.5 0 1 0 1.4 0C13.1 6.9 13.1 6.4 13.1 6"/>
	</symbol>
	<symbol class="i" id="reddit" width="100%" height="100%" viewBox="0 0 16 16">
		<path class="w" d="M8.1 14.3c-3.7 0-6.8-2.1-6.8-4.7c0-0.3 0-0.5 0.1-0.8c0.2-1 0.9-1.8 1.9-2.5C4.6 5.4 6.3 5 8.1 5 C10 5 11.7 5.4 13 6.4l0.1 0.1l-0.6 0.9l-0.1-0.1c-1.1-0.8-2.6-1.2-4.2-1.2C6.6 6.1 5 6.5 4 7.2C3.2 7.8 2.7 8.4 2.5 9.1 c0 0.2-0.1 0.3-0.1 0.5c0 2 2.5 3.6 5.7 3.6c3.1 0 5.7-1.6 5.7-3.6c0-0.2 0-0.3-0.1-0.5l0-0.1l1.1-0.2l0 0.1 c0.1 0.2 0.1 0.5 0.1 0.7C14.9 12.2 11.9 14.3 8.1 14.3z"/>
		<path class="w" d="M2.3 9.6L1.8 9.4c-0.6-0.3-1-0.9-1-1.6c0-1 0.8-1.8 1.8-1.8c0.5 0 1 0.2 1.4 0.6l0.3 0.4L3.9 7.1 c-0.8 0.6-1.3 1.2-1.5 2L2.3 9.6z"/>
		<path class="w" d="M14 9.6l-0.1-0.5c-0.2-0.7-0.7-1.4-1.5-2l-0.4-0.3l0.3-0.3c0.3-0.4 0.8-0.7 1.4-0.7c1 0 1.8 0.8 1.8 1.8 c0 0.7-0.4 1.4-1.1 1.7L14 9.6z"/>
		<path class="w" d="M7 8.8c0 0.6-0.5 1.1-1 1.1c-0.6 0-1-0.5-1-1.1c0-0.6 0.5-1.1 1-1.1C6.6 7.7 7 8.2 7 8.8z"/>
		<path class="w" d="M11.4 8.8c0 0.6-0.5 1.1-1 1.1c-0.6 0-1-0.5-1-1.1c0-0.6 0.5-1.1 1-1.1C10.9 7.7 11.4 8.2 11.4 8.8z"/>
		<path class="w" d="M13.1 4.5c-0.8 0-1.5-0.7-1.5-1.5c0-0.8 0.7-1.5 1.5-1.5s1.5 0.7 1.5 1.5C14.6 3.9 13.9 4.5 13.1 4.5z"/>
		<path class="w" d="M8.6 5.6L7.8 5.4l1.1-3.7l3.2 0.8L12 3.2L9.5 2.7L8.6 5.6z"/>
		<path class="w" d="M8.2 12.6c-0.8 0-1.7-0.3-2.4-0.8c-0.2-0.1-0.2-0.4-0.1-0.6c0.1-0.2 0.4-0.2 0.6-0.1c1.2 0.8 2.7 0.8 3.9 0 c0.2-0.1 0.4-0.1 0.6 0.1c0.1 0.2 0.1 0.4-0.1 0.6C9.9 12.4 9 12.6 8.2 12.6z"/>
	</symbol>
	<symbol class="i" id="linkedin" width="100%" height="100%" viewBox="0 0 16 16">
		<path class="w" d="M6.1 13.2h2V8.5c0-0.2 0.4-1.6 2-1.4l0 0c0.9 0.1 1.3 1.2 1.4 1.4v4.8l2 0V7.6c-0.1-0.8-0.5-2.5-2.7-2.5 c-1.7 0-2.6 1.3-2.7 1.4V5.1h-2V13.2z M2.8 13.2h2V5.1h-2V13.2z"/>
		<path class="w" d="M3.8 2.3c-0.6 0-1 0.5-1 1c0 0.6 0.5 1 1 1c0.6 0 1-0.5 1-1C4.8 2.8 4.3 2.3 3.8 2.3z"/>
	</symbol>
	<symbol class="i" id="email" width="100%" height="100%" viewBox="0 0 16 16">
		<path class="w" d="M3.4 4.7c0.7 0.7 2 1.8 2.7 2.5l0.2 0.2l0.1 0.1l0.8 0.7c0.1 0.1 0.3 0.2 0.5 0.3 C7.8 8.5 8 8.5 8.2 8.5c0.2 0 0.4 0 0.6-0.1c0.1-0.1 0.3-0.1 0.4-0.2l0.4-0.4l0.4-0.4v0l0.2-0.2c0.7-0.7 2-1.8 2.7-2.5l1.1-1 c0 0 0 0 0 0c-0.2-0.1-0.3-0.1-0.5-0.1H2.7c-0.2 0-0.3 0-0.5 0.1c0 0 0 0 0 0L3.4 4.7z M5.4 8.2L5.5 8L5.4 7.9 c-0.7-0.7-2-1.8-2.7-2.5l-1.1-1c-0.1 0-0.1-0.1-0.1-0.1C1.3 4.5 1.2 4.8 1.2 5v5.8c0 0.3 0.1 0.6 0.3 0.9c0 0 0 0 0.1-0.1l1.1-1 C3.4 9.9 4.6 8.8 5.4 8.2z M10.3 8.9l-0.2-0.2l0 0L9.9 8.9C9.8 9 9.8 9 9.7 9.1c-0.3 0.2-0.6 0.4-1 0.4c-0.2 0-0.4 0.1-0.5 0.1 c-0.3 0-0.7-0.1-1-0.2C6.9 9.3 6.7 9.1 6.5 8.9L6.3 8.7L6.1 8.9c-0.7 0.7-2 1.8-2.7 2.5l-1 0.9c0.1 0 0.2 0 0.3 0h10.9 c0.1 0 0.2 0 0.3 0l-1-0.9C12.2 10.7 11 9.6 10.3 8.9z M14.9 4.3c0 0-0.1 0.1-0.1 0.1l-1.1 1c-0.7 0.7-2 1.8-2.7 2.5L10.8 8L11 8.2 c0.7 0.7 2 1.8 2.7 2.5l1.1 1c0 0 0 0 0.1 0.1c0.2-0.2 0.3-0.6 0.3-0.9V5C15.1 4.8 15.1 4.5 14.9 4.3z"/>
	</symbol>
	<symbol class="i" id="arrowLeft" width="100%" height="100%" viewBox="0 0 16 16">
		<path class="w" d="M13.7 9.3c-0.2 0.2-0.4 0.3-0.7 0.3H7.3l2.4 2.3c0.2 0.2 0.3 0.4 0.3 0.7c0 0.3-0.1 0.5-0.3 0.7l-0.6 0.6 c-0.2 0.2-0.5 0.3-0.7 0.3c-0.3 0-0.5-0.1-0.7-0.3l-5.3-5C2.1 8.7 2 8.4 2 8.2c0-0.3 0.1-0.5 0.3-0.7l5.3-5 c0.2-0.2 0.5-0.3 0.7-0.3c0.3 0 0.5 0.1 0.7 0.3L9.7 3C9.9 3.2 10 3.4 10 3.7C10 4 9.9 4.2 9.7 4.4L7.3 6.7H13 c0.3 0 0.5 0.1 0.7 0.3C13.9 7.2 14 7.4 14 7.7v1C14 8.9 13.9 9.2 13.7 9.3z"/>
	</symbol>
	<symbol class="i" id="android" width="100%" height="100%" viewBox="0 0 16 16">
		<path class="b" d="M5 2.6C5.2 2.4 5.5 2.2 5.8 2c0.1 0 0.1-0.1 0-0.2C5.6 1.5 5.4 1.1 5.2 0.8c-0.1-0.1-0.1-0.2 0-0.3 c0.1-0.1 0.2-0.1 0.3 0c0 0 0.1 0.1 0.1 0.1C5.8 1 6 1.3 6.2 1.7c0 0.1 0.1 0.1 0.2 0.1c1.1-0.4 2.2-0.4 3.3 0c0.1 0 0.1 0 0.2-0.1 C10 1.3 10.2 1 10.4 0.6c0.1-0.1 0.2-0.2 0.3-0.1c0.1 0 0.2 0.2 0.1 0.3c-0.2 0.3-0.4 0.7-0.6 1C10.1 1.9 10.2 2 10.3 2 c0.9 0.6 1.6 1.4 1.9 2.5c0.1 0.3 0.1 0.5 0.1 0.8c0 0.1 0 0.1-0.1 0.1c-1.1 0-2.1 0-3.2 0H8c-1.4 0-2.7 0-4.1 0 c-0.1 0-0.1 0-0.1-0.1C3.8 4.2 4.2 3.3 5 2.6z M3.5 8.5c0 0.7 0 1.3 0 2c0 0.6-0.5 1-1 1c-0.6 0-1-0.5-1-1c0-1.3 0-2.7 0-4 c0-0.5 0.4-1 1-1c0.5 0 0.9 0.3 1 0.8c0 0.1 0 0.1 0 0.2V8.5z M12.2 11.8c0 0.6-0.4 1-1 1c-0.2 0-0.3 0-0.5 0c-0.1 0-0.1 0-0.1 0.1 c0 0.7 0 1.3 0 2c0 0.5-0.4 1-1 1c-0.6 0-1-0.5-1-1.1c0-0.6 0-1.3 0-1.9c0-0.1 0-0.1-0.1-0.1c-0.3 0-0.6 0-0.8 0 c-0.1 0-0.1 0-0.1 0.1c0 0.6 0 1.3 0 1.9c0 0.6-0.4 1-0.9 1.1C6 16 5.5 15.7 5.4 15.2c0-0.1 0-0.2 0-0.2c0-0.7 0-1.3 0-2 c0-0.1 0-0.1-0.1-0.1c-0.2 0-0.4 0-0.5 0c-0.5 0-1-0.5-1-1c0-2.1 0-4.1 0-6.2c0-0.1 0.1-0.1 0.1-0.1c1.3 0 2.6 0 3.9 0H9 c1 0 2.1 0 3.1 0c0.1 0 0.1 0 0.1 0.1C12.2 7.8 12.2 9.8 12.2 11.8z M14.6 10.4c0 0.6-0.4 1-1 1c-0.5 0-0.9-0.3-1-0.8 c0-0.1 0-0.1 0-0.2c0-0.7 0-1.3 0-2c0-0.7 0-1.3 0-2c0-0.6 0.5-1 1-1c0.6 0 1 0.5 1 1C14.6 7.8 14.6 9.1 14.6 10.4z"/>
	</symbol>
	<symbol class="i" id="ios" width="100%" height="100%" viewBox="0 0 16 16">
		<path class="b" d="M8.6 1.3C9 0.7 9.7 0.2 10.8 0c0 0.1 0 0.1 0 0.2c0 0.1 0 0.1 0 0.2c0 0.4-0.1 0.8-0.3 1.2 C10.4 2 10.1 2.4 9.7 2.8c-0.3 0.3-0.6 0.5-1 0.6C8.6 3.5 8.3 3.5 7.9 3.6C7.9 2.7 8.1 1.9 8.6 1.3z M13.1 13.8 c-0.8 1.2-1.5 1.7-2.3 1.7c-0.3 0-0.7-0.1-1.2-0.3C9 15 8.6 15 8.2 15c-0.4 0-0.8 0.1-1.3 0.3c-0.5 0.2-0.9 0.3-1.2 0.3 c-0.9 0-1.8-0.8-2.6-2.3c-0.9-1.5-1.3-3-1.3-4.5c0-1.4 0.3-2.5 1-3.3c0.7-0.9 1.5-1.3 2.5-1.3c0.4 0 0.9 0.1 1.6 0.3 c0.6 0.2 1 0.3 1.2 0.3c0.3 0 0.7-0.1 1.3-0.3c0.6-0.2 1.1-0.3 1.5-0.3c0.7 0 1.3 0.2 1.9 0.6c0.3 0.2 0.6 0.5 0.9 0.9 c-0.5 0.4-0.8 0.7-1 1c-0.4 0.6-0.6 1.2-0.6 1.8c0 0.7 0.2 1.4 0.6 2c0.4 0.6 0.9 1 1.4 1.1C13.9 12.3 13.6 13 13.1 13.8z"/>
	</symbol>
	<symbol class="i" id="windows" width="100%" height="100%" viewBox="0 0 16 16">
		<path class="b" d="M6.6 14.5l-5.9-0.8V8.7h5.9V14.5z M6.6 7.7H0.7V2.8L6.6 2V7.7z M15.3 15.6l-7.7-1.1V8.7h7.7V15.6z M15.3 7.7 H7.6V1.9l7.7-1.1V7.7z"/>
	</symbol>
	<symbol class="i" id="play" width="100%" height="100%" viewBox="0 0 16 16">
		<path class="w" d="M1.9 14.7c0 0.7 0.6 1.2 1.2 1.2c0.3 0 0.6-0.1 0.8-0.3h0L13.5 9c0.3-0.2 0.6-0.6 0.6-1c0-0.4-0.2-0.8-0.6-1 L3.9 0.3l0 0C3.7 0.1 3.4 0 3.2 0C2.5 0 1.9 0.6 1.9 1.3V14.7z"/>
	</symbol>
	<symbol class="i" id="messages" width="100%" height="100%" viewBox="0 0 16 16">
		<path class="b" d="M13.8 3H2.5C2.1 3 1.8 3.3 1.8 3.7v6.5c0 0 0 0 0 0.1l0 0l0 3.8c0 0.3 0.2 0.5 0.5 0.5c0.1 0 0.2 0 0.3-0.1 L5.9 11h7.9c0.4 0 0.8-0.3 0.8-0.8V3.7C14.5 3.3 14.2 3 13.8 3z"/>
	</symbol>
	<symbol class="i" id="minutes" width="100%" height="100%" viewBox="0 0 16 16">
		<path class="b" d="M8 1.5C4.4 1.5 1.5 4.4 1.5 8c0 3.6 2.9 6.5 6.5 6.5c3.6 0 6.5-2.9 6.5-6.5l0-0.1c0-0.3-0.2-0.6-0.6-0.6H9.2 c-0.3 0-0.6-0.2-0.6-0.6V2.1c0-0.3-0.2-0.6-0.6-0.6L8 1.5z"/>
	</symbol>
	<symbol class="i" id="megabytes" width="100%" height="100%" viewBox="0 0 16 16">
		<path class="b" d="M12.7 6.8c-0.4 0-0.7-0.3-0.7-0.7V5c0-0.4 0.3-0.7 0.7-0.7h2.6C15.7 4.3 16 4.6 16 5v1.2 c0 0.4-0.3 0.7-0.7 0.7H12.7z"/>
		<path class="b" d="M8.3 3.7c-0.4 0-0.7-0.3-0.7-0.7V1.9c0-0.4 0.3-0.7 0.7-0.7h2.6c0.4 0 0.7 0.3 0.7 0.7v1.2 c0 0.4-0.3 0.7-0.7 0.7H8.3z"/>
		<path class="b" d="M12.2 9.5H8.4V6.7c0-0.4-0.3-0.7-0.7-0.7H4V4c0-0.4-0.3-0.7-0.7-0.7H0.7C0.3 3.3 0 3.6 0 4v10.1 c0 0.4 0.3 0.7 0.7 0.7h1.1h1.5h3h1.5h4.5c0.4 0 0.7-0.3 0.7-0.7v-4C12.9 9.8 12.6 9.5 12.2 9.5z"/>
	</symbol>
	<symbol class="i" id="devices" width="100%" height="100%" viewBox="0 0 16 16">
		<path class="st5" d="M11.1 0.2h-6c-0.8 0-1.5 0.7-1.5 1.5v12.6c0 0.8 0.7 1.5 1.5 1.5h6c0.8 0 1.5-0.7 1.5-1.5V1.7 C12.6 0.9 11.9 0.2 11.1 0.2z M8.1 14.3c-0.5 0-1-0.4-1-1c0-0.5 0.4-1 1-1s1 0.4 1 1C9.1 13.9 8.7 14.3 8.1 14.3z M9.1 2.7h-2 c-0.3 0-0.5-0.2-0.5-0.5s0.2-0.5 0.5-0.5h2c0.3 0 0.5 0.2 0.5 0.5S9.4 2.7 9.1 2.7z"/>
	</symbol>
	<symbol class="i" id="calendar" width="100%" height="100%" viewBox="0 0 16 16">
		<path class="g" d="M14 3.5c-0.2-0.2-0.4-0.3-0.6-0.3h-0.9V2.6c0-0.3-0.1-0.6-0.3-0.8c-0.2-0.2-0.5-0.3-0.8-0.3h-0.5 c-0.3 0-0.6 0.1-0.8 0.3C9.8 2 9.7 2.3 9.7 2.6v0.7H7V2.6C7 2.3 6.9 2 6.6 1.8C6.4 1.6 6.2 1.4 5.8 1.4H5.4c-0.3 0-0.6 0.1-0.8 0.3 S4.3 2.3 4.3 2.6v0.7H3.4c-0.2 0-0.5 0.1-0.6 0.3C2.5 3.7 2.5 3.9 2.5 4.2v9.1c0 0.2 0.1 0.5 0.3 0.6c0.2 0.2 0.4 0.3 0.6 0.3h10 c0.2 0 0.5-0.1 0.6-0.3c0.2-0.2 0.3-0.4 0.3-0.6V4.2C14.2 3.9 14.1 3.7 14 3.5z M5.4 13.2h-2v-2h2V13.2z M5.4 10.7h-2V8.5h2V10.7z  M5.4 8h-2V6h2V8z M5.2 4.8c0 0-0.1-0.1-0.1-0.2v-2c0-0.1 0-0.1 0.1-0.2c0 0 0.1-0.1 0.2-0.1h0.5c0.1 0 0.1 0 0.2 0.1 c0 0 0.1 0.1 0.1 0.2v2c0 0.1 0 0.1-0.1 0.2c0 0-0.1 0.1-0.2 0.1H5.4C5.3 4.8 5.3 4.8 5.2 4.8z M8.1 13.2H5.8v-2h2.3V13.2z  M8.1 10.7H5.8V8.5h2.3V10.7z M8.1 8H5.8V6h2.3V8z M10.8 13.2H8.6v-2h2.3V13.2z M10.8 10.7H8.6V8.5h2.3V10.7z M10.8 8H8.6V6h2.3V8z  M10.7 4.8c0 0-0.1-0.1-0.1-0.2v-2c0-0.1 0-0.1 0.1-0.2c0 0 0.1-0.1 0.2-0.1h0.5c0.1 0 0.1 0 0.2 0.1c0 0 0.1 0.1 0.1 0.2v2 c0 0.1 0 0.1-0.1 0.2c0 0-0.1 0.1-0.2 0.1h-0.5C10.8 4.8 10.7 4.8 10.7 4.8z M13.3 13.2h-2v-2h2V13.2z M13.3 10.7h-2V8.5h2V10.7z  M13.3 8h-2V6h2V8z"/>
	</symbol>
	<symbol class="i" id="bell" width="100%" height="100%" viewBox="0 0 16 16">
		<path class="g" d="M12.4 8.6c-0.5-1.1-0.7-2.3-0.7-3.6c0-0.8-0.2-1.4-0.7-1.9c-0.5-0.5-1.1-0.7-1.9-0.8c0-0.1 0.1-0.2 0.1-0.3 c0-0.2-0.1-0.4-0.2-0.5C8.8 1.4 8.7 1.3 8.5 1.3C8.3 1.3 8.1 1.4 8 1.5C7.8 1.6 7.8 1.8 7.8 2c0 0.1 0 0.2 0.1 0.3 C7 2.4 6.4 2.6 5.9 3.1C5.5 3.6 5.2 4.2 5.2 5c0 1.3-0.2 2.5-0.7 3.6c-0.5 1.1-1.2 2.1-2.1 2.9c0 0.3 0.1 0.5 0.3 0.7 c0.2 0.2 0.4 0.3 0.7 0.3h3.2c0 0.5 0.2 0.9 0.5 1.3c0.4 0.4 0.8 0.5 1.3 0.5c0.5 0 0.9-0.2 1.3-0.5c0.4-0.4 0.5-0.8 0.5-1.3h3.2 c0.3 0 0.5-0.1 0.7-0.3c0.2-0.2 0.3-0.4 0.3-0.7C13.6 10.7 12.9 9.7 12.4 8.6z M8.5 13.7c-0.4 0-0.7-0.1-0.9-0.4 c-0.2-0.2-0.4-0.5-0.4-0.9c0-0.1 0-0.1 0.1-0.1c0.1 0 0.1 0 0.1 0.1c0 0.3 0.1 0.5 0.3 0.7c0.2 0.2 0.4 0.3 0.7 0.3 c0.1 0 0.1 0 0.1 0.1C8.6 13.6 8.5 13.7 8.5 13.7z"/>
	</symbol>
	<symbol class="i" id="chat" width="100%" height="100%" viewBox="0 0 16 16">
		<path class="g" d="M9.4 9.4c0.8-0.4 1.5-0.8 2-1.4c0.5-0.6 0.7-1.3 0.7-2s-0.2-1.4-0.7-2c-0.5-0.6-1.1-1.1-2-1.4 C8.6 2.3 7.7 2.1 6.7 2.1S4.8 2.3 4 2.6C3.2 3 2.5 3.5 2 4.1C1.5 4.7 1.3 5.3 1.3 6c0 0.6 0.2 1.2 0.5 1.7c0.4 0.5 0.9 1 1.5 1.4 C3.3 9.2 3.2 9.4 3.2 9.5C3.1 9.6 3.1 9.7 3 9.8C2.9 9.9 2.9 9.9 2.8 10c0 0.1-0.1 0.1-0.2 0.2c-0.1 0.1-0.2 0.2-0.2 0.2 c0 0 0 0 0 0c0 0 0 0 0 0c0 0 0 0 0 0c0 0 0 0 0 0l0 0c0 0 0 0 0 0c0 0 0 0 0 0.1c0 0 0 0 0 0c0 0.1 0 0.1 0.1 0.2 c0 0 0.1 0.1 0.2 0.1h0c0.3 0 0.5-0.1 0.7-0.1c0.8-0.2 1.5-0.5 2.1-1C5.8 9.9 6.3 10 6.7 10C7.7 10 8.6 9.8 9.4 9.4z"/>
		<path class="g" d="M14.5 9.7c0.4-0.5 0.5-1.1 0.5-1.7c0-0.6-0.2-1.2-0.6-1.8c-0.4-0.5-0.9-1-1.6-1.4C13 5.3 13.1 5.6 13.1 6 c0 0.7-0.2 1.3-0.5 2c-0.3 0.6-0.8 1.2-1.5 1.6c-0.6 0.4-1.3 0.8-2 1C8.3 10.8 7.5 11 6.7 11c-0.2 0-0.4 0-0.7 0c1 0.7 2.2 1 3.6 1 c0.4 0 0.9 0 1.4-0.1c0.6 0.5 1.3 0.8 2.1 1c0.2 0 0.4 0.1 0.7 0.1c0.1 0 0.1 0 0.2-0.1c0.1 0 0.1-0.1 0.1-0.2c0 0 0 0 0 0 c0 0 0 0 0-0.1c0 0 0 0 0 0l0 0c0 0 0 0 0 0c0 0 0 0 0 0c0 0 0 0 0 0c0 0 0 0 0 0c0 0-0.1-0.1-0.2-0.2c-0.1-0.1-0.2-0.2-0.2-0.2 c0-0.1-0.1-0.1-0.2-0.2s-0.1-0.2-0.2-0.3c-0.1-0.1-0.1-0.2-0.2-0.3C13.7 10.7 14.2 10.3 14.5 9.7z"/>
	</symbol>
	<symbol class="i" id="clock" width="100%" height="100%" viewBox="0 0 16 16">
		<path class="g" d="M14.4 4.2c-0.6-1.1-1.5-2-2.6-2.6c-1.1-0.6-2.3-1-3.6-1s-2.5 0.3-3.6 1c-1.1 0.6-2 1.5-2.6 2.6S1 6.5 1 7.8 c0 1.3 0.3 2.5 1 3.6c0.6 1.1 1.5 2 2.6 2.6c1.1 0.6 2.3 1 3.6 1c1.3 0 2.5-0.3 3.6-1c1.1-0.6 2-1.5 2.6-2.6c0.6-1.1 1-2.3 1-3.6 S15.1 5.3 14.4 4.2z M12.6 10.3c-0.5 0.8-1.1 1.4-1.9 1.9c-0.8 0.5-1.6 0.7-2.6 0.7s-1.8-0.2-2.6-0.7c-0.8-0.5-1.4-1.1-1.9-1.9 C3.3 9.6 3.1 8.7 3.1 7.8c0-0.9 0.2-1.8 0.7-2.6c0.5-0.8 1.1-1.4 1.9-1.9c0.8-0.5 1.6-0.7 2.6-0.7c0.9 0 1.8 0.2 2.6 0.7 c0.8 0.5 1.4 1.1 1.9 1.9c0.5 0.8 0.7 1.6 0.7 2.6C13.3 8.7 13.1 9.6 12.6 10.3z"/>
		<path class="g" d="M9.1 4.2H8.5c-0.1 0-0.2 0-0.2 0.1C8.2 4.3 8.2 4.4 8.2 4.5v3.3H6.1c-0.1 0-0.2 0-0.2 0.1 C5.8 7.9 5.8 8 5.8 8.1v0.6c0 0.1 0 0.2 0.1 0.2C5.9 9 6 9 6.1 9h3c0.1 0 0.2 0 0.2-0.1c0.1-0.1 0.1-0.1 0.1-0.2V4.5 c0-0.1 0-0.2-0.1-0.2C9.2 4.2 9.2 4.2 9.1 4.2z"/>
	</symbol>
	<symbol class="i" id="cup" width="100%" height="100%" viewBox="0 0 16 16">
		<path class="g" d="M1.7 13.1C2 13.5 2.5 13.7 3 13.7h9.8c0.5 0 1-0.2 1.4-0.6c0.4-0.4 0.6-0.8 0.6-1.4H1.1 C1.1 12.3 1.3 12.7 1.7 13.1z"/>
		<path class="g" d="M4.8 10.7h5.4c0.5 0 0.9-0.2 1.2-0.5c0.3-0.3 0.5-0.7 0.5-1.2V8.8h0.5c0.8 0 1.5-0.3 2.1-0.9 c0.6-0.6 0.9-1.3 0.9-2.1c0-0.8-0.3-1.5-0.9-2.1c-0.6-0.6-1.3-0.9-2.1-0.9H3.5c-0.1 0-0.2 0-0.3 0.1C3.1 3.2 3 3.3 3 3.4V9 c0 0.5 0.2 0.9 0.5 1.2C3.9 10.6 4.3 10.7 4.8 10.7z M11.8 4.4h0.5c0.4 0 0.8 0.1 1 0.4c0.3 0.3 0.4 0.6 0.4 1c0 0.4-0.1 0.8-0.4 1 c-0.3 0.3-0.6 0.4-1 0.4h-0.5V4.4z"/>
	</symbol>
	<symbol class="i" id="flag" width="100%" height="100%" viewBox="0 0 16 16">
		<path class="g" d="M3.1 2C2.9 1.8 2.7 1.7 2.4 1.7C2.1 1.7 1.9 1.8 1.7 2C1.5 2.2 1.4 2.5 1.4 2.7c0 0.4 0.2 0.7 0.5 0.9v10 c0 0.1 0 0.1 0.1 0.2c0 0 0.1 0.1 0.2 0.1h0.5c0.1 0 0.1 0 0.2-0.1c0 0 0.1-0.1 0.1-0.2v-10c0.3-0.2 0.5-0.5 0.5-0.9 C3.4 2.5 3.3 2.2 3.1 2z"/>
		<path class="g" d="M14.8 2.9c-0.1-0.1-0.2-0.1-0.4-0.1c-0.1 0-0.2 0.1-0.4 0.2c-0.2 0.1-0.4 0.2-0.7 0.4 c-0.2 0.1-0.5 0.3-0.9 0.4c-0.3 0.1-0.6 0.2-0.9 0.2c-0.3 0-0.5 0-0.7-0.1C10.2 3.4 9.6 3.1 9.1 3c-0.5-0.2-1-0.2-1.6-0.2 c-1 0-2.1 0.3-3.3 0.9C4 3.8 3.7 4 3.6 4C3.5 4.1 3.4 4.3 3.4 4.5v5.8c0 0.1 0 0.3 0.1 0.4c0.1 0.1 0.2 0.1 0.4 0.1 c0.1 0 0.2 0 0.3-0.1C5.6 10 6.8 9.6 7.8 9.6c0.4 0 0.8 0.1 1.1 0.2c0.4 0.1 0.7 0.2 0.9 0.4c0.2 0.1 0.5 0.3 0.9 0.4 c0.3 0.1 0.7 0.2 1 0.2c0.8 0 1.8-0.3 2.9-0.9c0.1-0.1 0.2-0.1 0.3-0.2C14.9 9.5 15 9.4 15 9.3v-6C15 3.1 14.9 3 14.8 2.9z"/>
	</symbol>
	<symbol class="i" id="gears" width="100%" height="100%" viewBox="0 0 16 16">
		<path class="g" d="M9.5 10.5c0-0.1 0-0.1-0.1-0.2C9.2 10 9 9.7 8.8 9.5C8.9 9.3 9 9.1 9 8.9l1.2-0.2c0 0 0.1 0 0.1-0.1 c0-0.1 0.1-0.1 0.1-0.2V7c0-0.1 0-0.1-0.1-0.2c0 0-0.1-0.1-0.1-0.1L9 6.5C9 6.4 8.9 6.1 8.8 5.9C8.9 5.8 9 5.6 9.1 5.4 C9.3 5.2 9.4 5.1 9.5 5c0-0.1 0.1-0.1 0.1-0.2c0-0.1-0.4-0.6-1.1-1.3c-0.1 0-0.1-0.1-0.2-0.1c-0.1 0-0.1 0-0.2 0.1L7.1 4.3 C6.9 4.1 6.7 4.1 6.5 4L6.3 2.8c0-0.1 0-0.1-0.1-0.1c0 0-0.1-0.1-0.2-0.1H4.6c-0.1 0-0.2 0.1-0.2 0.2C4.3 3 4.3 3.4 4.2 4 C4 4.1 3.8 4.2 3.6 4.3L2.7 3.6c-0.1 0-0.1-0.1-0.2-0.1C2.4 3.5 2.2 3.7 1.9 4C1.6 4.3 1.3 4.5 1.2 4.7c0 0-0.1 0.1-0.1 0.2 c0 0 0 0.1 0.1 0.2c0.3 0.4 0.5 0.7 0.7 0.9C1.8 6.1 1.7 6.3 1.7 6.5L0.5 6.7c0 0-0.1 0-0.1 0.1c0 0.1-0.1 0.1-0.1 0.2v1.5 c0 0.1 0 0.1 0.1 0.2c0 0 0.1 0.1 0.1 0.1l1.2 0.2C1.7 9 1.8 9.3 1.9 9.5C1.9 9.6 1.7 9.8 1.6 10c-0.2 0.2-0.3 0.3-0.3 0.4 c0 0.1-0.1 0.1-0.1 0.2c0 0.1 0.4 0.6 1.1 1.3c0.1 0 0.1 0.1 0.2 0.1c0.1 0 0.1 0 0.2-0.1l0.9-0.7c0.2 0.1 0.4 0.2 0.6 0.2l0.2 1.2 c0 0.1 0 0.1 0.1 0.1c0 0 0.1 0.1 0.2 0.1h1.5c0.1 0 0.2-0.1 0.2-0.2c0.1-0.2 0.1-0.7 0.2-1.2c0.2-0.1 0.4-0.1 0.6-0.2L8 11.8 c0.1 0 0.1 0.1 0.2 0.1c0.1 0 0.3-0.2 0.6-0.5c0.3-0.3 0.5-0.6 0.7-0.7C9.5 10.7 9.5 10.6 9.5 10.5z M6.8 9.1 C6.4 9.5 5.9 9.7 5.4 9.7c-0.6 0-1-0.2-1.4-0.6C3.5 8.7 3.3 8.3 3.3 7.7c0-0.6 0.2-1 0.6-1.4c0.4-0.4 0.9-0.6 1.4-0.6 c0.6 0 1 0.2 1.4 0.6c0.4 0.4 0.6 0.9 0.6 1.4C7.4 8.3 7.2 8.7 6.8 9.1z"/>
		<path class="g" d="M14.4 11c-0.1-0.2-0.1-0.3-0.2-0.4c0.3-0.6 0.4-1 0.4-1.1c0 0 0 0 0-0.1c-0.6-0.4-1-0.6-1-0.6l0 0 c-0.2 0.2-0.5 0.5-0.7 0.9c-0.1 0-0.2 0-0.2 0c-0.1 0-0.1 0-0.2 0c-0.1-0.1-0.2-0.3-0.4-0.5c-0.2-0.2-0.3-0.4-0.4-0.4 c0 0-0.1 0-0.2 0.1c-0.1 0.1-0.3 0.2-0.5 0.3c-0.2 0.1-0.3 0.1-0.3 0.2c0 0 0 0 0 0.1c0 0.1 0.1 0.5 0.4 1.1 c-0.1 0.1-0.2 0.3-0.2 0.4c-0.8 0.1-1.2 0.2-1.2 0.2v1.1c0 0.1 0.4 0.2 1.2 0.2c0.1 0.1 0.1 0.3 0.2 0.4c-0.3 0.6-0.4 1-0.4 1.1 c0 0 0 0 0 0.1c0.6 0.4 1 0.6 1 0.6c0 0 0.2-0.1 0.4-0.4c0.2-0.2 0.3-0.4 0.4-0.5c0.1 0 0.2 0 0.2 0c0.1 0 0.1 0 0.2 0 c0.1 0.1 0.2 0.3 0.4 0.5c0.2 0.2 0.3 0.4 0.4 0.4c0 0 0.3-0.2 1-0.6c0 0 0 0 0-0.1c0-0.1-0.1-0.5-0.4-1.1c0.1-0.1 0.2-0.3 0.2-0.4 c0.8-0.1 1.2-0.2 1.2-0.2v-1.1C15.5 11.1 15.1 11 14.4 11z M13.2 12.5c-0.2 0.2-0.4 0.3-0.7 0.3c-0.3 0-0.5-0.1-0.7-0.3 c-0.2-0.2-0.3-0.4-0.3-0.7c0-0.3 0.1-0.5 0.3-0.7c0.2-0.2 0.4-0.3 0.7-0.3c0.3 0 0.5 0.1 0.7 0.3c0.2 0.2 0.3 0.4 0.3 0.7 C13.5 12 13.4 12.3 13.2 12.5z"/>
		<path class="g" d="M14.4 2.8c-0.1-0.2-0.1-0.3-0.2-0.4c0.3-0.6 0.4-1 0.4-1.1c0 0 0 0 0-0.1c-0.6-0.4-1-0.6-1-0.6l0 0 c-0.2 0.2-0.5 0.5-0.7 0.9c-0.1 0-0.2 0-0.2 0c-0.1 0-0.1 0-0.2 0c-0.1-0.1-0.2-0.3-0.4-0.5c-0.2-0.2-0.3-0.4-0.4-0.4 c0 0-0.1 0-0.2 0.1c-0.1 0.1-0.3 0.2-0.5 0.3c-0.2 0.1-0.3 0.1-0.3 0.2c0 0 0 0 0 0.1c0 0.1 0.1 0.5 0.4 1.1 c-0.1 0.1-0.2 0.3-0.2 0.4C9.8 2.9 9.4 3 9.4 3.1v1.1c0 0.1 0.4 0.2 1.2 0.2c0.1 0.1 0.1 0.3 0.2 0.4c-0.3 0.6-0.4 1-0.4 1.1 c0 0 0 0 0 0.1c0.6 0.4 1 0.6 1 0.6c0 0 0.2-0.1 0.4-0.4c0.2-0.2 0.3-0.4 0.4-0.5c0.1 0 0.2 0 0.2 0c0.1 0 0.1 0 0.2 0 c0.1 0.1 0.2 0.3 0.4 0.5c0.2 0.2 0.3 0.4 0.4 0.4c0 0 0.3-0.2 1-0.6c0 0 0 0 0-0.1c0-0.1-0.1-0.5-0.4-1.1c0.1-0.1 0.2-0.3 0.2-0.4 c0.8-0.1 1.2-0.2 1.2-0.2V3.1C15.5 3 15.1 2.9 14.4 2.8z M13.2 4.3c-0.2 0.2-0.4 0.3-0.7 0.3c-0.3 0-0.5-0.1-0.7-0.3 c-0.2-0.2-0.3-0.4-0.3-0.7c0-0.3 0.1-0.5 0.3-0.7c0.2-0.2 0.4-0.3 0.7-0.3c0.3 0 0.5 0.1 0.7 0.3c0.2 0.2 0.3 0.4 0.3 0.7 C13.5 3.9 13.4 4.1 13.2 4.3z"/>
	</symbol>
	<symbol class="i" id="instagram" width="100%" height="100%" viewBox="0 0 16 16">
		<path d="M8 1.5c2.1 0 2.4 0 3.2 0c0.8 0 1.2 0.2 1.5 0.3C13 2 13.3 2.1 13.5 2.4s0.4 0.5 0.6 0.9 c0.1 0.3 0.2 0.7 0.3 1.5c0 0.8 0 1.1 0 3.2s0 2.4 0 3.2c0 0.8-0.2 1.2-0.3 1.5c-0.1 0.4-0.3 0.6-0.6 0.9c-0.3 0.3-0.5 0.4-0.9 0.6 c-0.3 0.1-0.7 0.2-1.5 0.3c-0.8 0-1.1 0-3.2 0c-2.1 0-2.4 0-3.2 0c-0.8 0-1.2-0.2-1.5-0.3C3 14 2.7 13.8 2.4 13.5 C2.2 13.2 2 13 1.9 12.6c-0.1-0.3-0.2-0.7-0.3-1.5c0-0.8 0-1.1 0-3.2s0-2.4 0-3.2c0-0.8 0.2-1.2 0.3-1.5C2 2.9 2.2 2.7 2.4 2.4 S3 2 3.4 1.8C3.6 1.7 4 1.6 4.8 1.6C5.6 1.5 5.9 1.5 8 1.5 M8 0.1c-2.1 0-2.4 0-3.2 0c-0.8 0-1.4 0.2-1.9 0.4 C2.3 0.7 1.9 1 1.4 1.4C1 1.8 0.7 2.3 0.5 2.8C0.3 3.3 0.2 3.9 0.2 4.7c0 0.8 0 1.1 0 3.2c0 2.1 0 2.4 0 3.2c0 0.8 0.2 1.4 0.4 1.9 c0.2 0.5 0.5 1 0.9 1.4c0.4 0.4 0.9 0.7 1.4 0.9c0.5 0.2 1.1 0.3 1.9 0.4c0.8 0 1.1 0 3.2 0c2.1 0 2.4 0 3.2 0 c0.8 0 1.4-0.2 1.9-0.4c0.5-0.2 1-0.5 1.4-0.9c0.4-0.4 0.7-0.9 0.9-1.4c0.2-0.5 0.3-1.1 0.4-1.9c0-0.8 0-1.1 0-3.2 c0-2.1 0-2.4 0-3.2c0-0.8-0.2-1.4-0.4-1.9c-0.2-0.5-0.5-1-0.9-1.4c-0.4-0.4-0.9-0.7-1.4-0.9c-0.5-0.2-1.1-0.3-1.9-0.4 C10.4 0.1 10.1 0.1 8 0.1L8 0.1z"/>
		<path d="M8 3.9c-2.2 0-4 1.8-4 4s1.8 4 4 4c2.2 0 4-1.8 4-4S10.2 3.9 8 3.9z M8 10.6c-1.4 0-2.6-1.2-2.6-2.6 c0-1.5 1.2-2.6 2.6-2.6c1.5 0 2.6 1.2 2.6 2.6C10.6 9.4 9.4 10.6 8 10.6z"/>
		<circle cx="12.2" cy="3.8" r="0.9"/>
	</symbol>
	<symbol class="i" id="youtube" width="100%" height="100%" viewBox="0 0 16 16">
		<path class="g" d="M15.4 5.8c0 0-0.1-1-0.6-1.4c-0.6-0.6-1.2-0.6-1.5-0.6c-2.1-0.1-5.1-0.1-5.1-0.1h0c0 0-3.1 0-5.1 0.1 c-0.3 0-0.9 0-1.5 0.6C1.1 4.8 1 5.8 1 5.8S0.8 7 0.8 8.1v1.1c0 1.2 0.1 2.3 0.1 2.3s0.1 1 0.6 1.4c0.6 0.6 1.3 0.6 1.6 0.6 c1.2 0.1 5 0.1 5 0.1s3.1 0 5.2-0.2c0.3 0 0.9 0 1.5-0.6c0.4-0.4 0.6-1.4 0.6-1.4s0.1-1.2 0.1-2.3V8.1C15.5 7 15.4 5.8 15.4 5.8z M6.7 10.6l0-4l4 2L6.7 10.6z"/>
	</symbol>
	<symbol class="i" id="mail" width="100%" height="100%" viewBox="0 0 16 16">
		<path class="g" d="M3.1 6.7c0.2 0.1 0.6 0.4 1.4 1c0.8 0.6 1.4 1 1.8 1.3c0 0 0.1 0.1 0.3 0.2C6.8 9.3 7 9.4 7.1 9.5 c0.1 0.1 0.2 0.1 0.4 0.2c0.1 0.1 0.3 0.1 0.4 0.2c0.1 0 0.2 0.1 0.4 0.1h0h0c0.1 0 0.2 0 0.4-0.1c0.1 0 0.3-0.1 0.4-0.2 c0.1-0.1 0.3-0.2 0.4-0.2c0.1-0.1 0.2-0.2 0.4-0.3C9.8 9.1 9.9 9 10 9c0.4-0.3 1.5-1.1 3.3-2.3c0.3-0.2 0.6-0.5 0.9-0.9 c0.2-0.3 0.3-0.7 0.3-1.1c0-0.3-0.1-0.6-0.3-0.8c-0.2-0.2-0.5-0.3-0.8-0.3H3C2.6 3.7 2.4 3.8 2.2 4C2 4.3 1.9 4.6 1.9 4.9 c0 0.3 0.1 0.6 0.4 1C2.5 6.2 2.8 6.5 3.1 6.7z"/>
		<path class="g" d="M13.8 7.5c-1.5 1-2.7 1.8-3.5 2.4c-0.3 0.2-0.5 0.4-0.7 0.5c-0.2 0.1-0.4 0.2-0.7 0.3 c-0.3 0.1-0.5 0.2-0.8 0.2h0h0c-0.2 0-0.5-0.1-0.8-0.2c-0.3-0.1-0.5-0.2-0.7-0.3c-0.2-0.1-0.4-0.3-0.7-0.5C5.5 9.4 4.3 8.6 2.6 7.5 C2.3 7.3 2.1 7.1 1.9 6.9v5.6c0 0.3 0.1 0.6 0.3 0.8c0.2 0.2 0.5 0.3 0.8 0.3h10.3c0.3 0 0.6-0.1 0.8-0.3c0.2-0.2 0.3-0.5 0.3-0.8 V6.9C14.3 7.1 14 7.3 13.8 7.5z"/>
	</symbol>
	<symbol class="i" id="megaphone" width="100%" height="100%" viewBox="0 0 16 16">
		<path class="g" d="M14.4 6.1c-0.2-0.2-0.4-0.3-0.7-0.3h0V3c0-0.3-0.1-0.5-0.3-0.7C13.3 2.1 13 2 12.8 2C10.5 3.9 8.2 4.9 6 4.9 H2.4C2.1 4.9 1.8 5 1.6 5.2C1.3 5.5 1.2 5.8 1.2 6.1v1.4c0 0.3 0.1 0.6 0.4 0.9c0.2 0.2 0.5 0.4 0.9 0.4h0.9C3.2 9 3.2 9.3 3.2 9.6 c0 0.3 0 0.5 0 0.7c0 0.2 0 0.5 0.1 0.8c0.1 0.3 0.1 0.5 0.2 0.7c0 0.2 0.1 0.4 0.2 0.7c0.1 0.3 0.2 0.5 0.2 0.7 c0.2 0.2 0.6 0.3 1 0.4c0.4 0.1 0.9 0 1.3-0.1c0.4-0.1 0.7-0.3 0.8-0.6c-0.2-0.2-0.3-0.3-0.5-0.4c-0.1-0.1-0.2-0.2-0.4-0.4 C6 11.9 6 11.8 5.9 11.6c0-0.1-0.1-0.3 0-0.4c0-0.2 0.1-0.3 0.2-0.5c-0.2-0.2-0.3-0.4-0.3-0.7c0-0.3 0.1-0.5 0.2-0.8 C6.1 9 6.4 8.9 6.7 8.8c2 0.2 4 1.1 6.1 2.9c0.3 0 0.5-0.1 0.7-0.3c0.2-0.2 0.3-0.4 0.3-0.7V7.8c0.3 0 0.5-0.1 0.7-0.3 c0.2-0.2 0.3-0.4 0.3-0.7C14.7 6.5 14.6 6.3 14.4 6.1z M12.8 10.4C10.8 8.9 8.9 8 7 7.8v-2c1.9-0.2 3.8-1.1 5.8-2.6V10.4z"/>
	</symbol>
	<symbol class="i" id="rss" width="100%" height="100%" viewBox="0 0 16 16">
		<path class="g" d="M2.9 7.2v2.3c2.5 0 4.6 2.1 4.6 4.6h2.3C9.8 10.3 6.7 7.2 2.9 7.2z"/>
		<path class="g" d="M2.9 2.6v2.3c5.1 0 9.2 4.1 9.2 9.2h2.3C14.4 7.8 9.2 2.6 2.9 2.6z"/>
		<path class="g" d="M4 11.8c-0.6 0-1.1 0.5-1.1 1.2c0 0.6 0.5 1.1 1.1 1.1c0.6 0 1.2-0.5 1.2-1.1C5.2 12.3 4.6 11.8 4 11.8z"/>
	</symbol>
	<symbol class="i" id="money" width="100%" height="100%" viewBox="0 0 16 16">
		<path class="g" d="M12.5 9.7c-0.1-0.3-0.2-0.5-0.3-0.7c-0.1-0.2-0.3-0.4-0.5-0.6c-0.2-0.2-0.4-0.3-0.6-0.4 c-0.2-0.1-0.4-0.2-0.7-0.4C10.2 7.5 10 7.4 9.8 7.3C9.7 7.3 9.4 7.2 9.1 7.1C8.8 7 8.6 6.9 8.5 6.8C8.3 6.8 8.1 6.7 7.9 6.6 C7.7 6.5 7.5 6.4 7.4 6.3C7.3 6.2 7.2 6.1 7.1 6C6.9 5.9 6.9 5.8 6.8 5.6C6.8 5.5 6.7 5.4 6.7 5.2c0-0.4 0.2-0.7 0.5-1 C7.6 4 8.1 3.8 8.7 3.8c0.3 0 0.5 0 0.8 0.1C9.7 4 9.9 4.1 10.1 4.2c0.2 0.1 0.4 0.2 0.5 0.3c0.2 0.1 0.3 0.2 0.3 0.2 c0.1 0.1 0.1 0.1 0.1 0.1c0.1 0.1 0.2 0.1 0.2 0.1c0.1 0 0.2-0.1 0.2-0.1l0.7-1.3c0.1-0.1 0.1-0.2 0-0.3c0 0-0.1-0.1-0.1-0.1 c-0.1 0-0.2-0.1-0.3-0.3c-0.2-0.1-0.4-0.2-0.6-0.3c-0.2-0.1-0.5-0.2-0.8-0.3c-0.3-0.1-0.6-0.2-1-0.2V0.3c0-0.1 0-0.2-0.1-0.2 C9.3 0 9.2 0 9.1 0H7.9C7.8 0 7.8 0 7.7 0.1C7.6 0.1 7.6 0.2 7.6 0.3v1.6C6.7 2.1 5.9 2.5 5.3 3.1C4.8 3.7 4.5 4.4 4.5 5.2 c0 0.2 0 0.5 0.1 0.7c0.1 0.2 0.1 0.4 0.2 0.6C4.8 6.7 4.9 6.9 5 7.1c0.1 0.2 0.3 0.3 0.4 0.4c0.1 0.1 0.3 0.2 0.5 0.4 C6.1 8 6.3 8.1 6.4 8.2C6.6 8.3 6.7 8.4 7 8.5c0.2 0.1 0.4 0.2 0.5 0.2c0.1 0.1 0.3 0.1 0.5 0.2c0.3 0.1 0.6 0.2 0.7 0.3 c0.2 0.1 0.4 0.2 0.6 0.3c0.2 0.1 0.4 0.2 0.5 0.3c0.1 0.1 0.2 0.2 0.3 0.4c0.1 0.1 0.1 0.3 0.1 0.5c0 0.5-0.2 0.8-0.5 1.1 C9.4 12 9 12.2 8.5 12.2c-0.2 0-0.4 0-0.7-0.1c-0.8-0.2-1.5-0.5-2.2-1.1l0 0c-0.1-0.1-0.1-0.1-0.2-0.1c-0.1 0-0.2 0-0.2 0.1 l-0.9 1.2c-0.1 0.1-0.1 0.2 0 0.4c0 0 0.1 0.1 0.2 0.2c0.1 0.1 0.2 0.2 0.4 0.3c0.2 0.2 0.4 0.3 0.7 0.4c0.2 0.1 0.5 0.3 0.9 0.4 s0.7 0.2 1.1 0.3v1.6c0 0.1 0 0.1 0.1 0.2C7.8 16 7.8 16 7.9 16h1.2c0.1 0 0.2 0 0.2-0.1c0.1-0.1 0.1-0.1 0.1-0.2v-1.6 c0.9-0.2 1.7-0.6 2.3-1.2c0.6-0.7 0.9-1.4 0.9-2.4C12.6 10.3 12.6 10 12.5 9.7z"/>
	</symbol>
	<symbol class="i" id="search" width="100%" height="100%" viewBox="0 0 16 16">
		<path class="g" d="M1.1 13.2l3-3C3.4 9.1 3.1 7.9 3.1 6.6c0-0.8 0.2-1.6 0.5-2.4s0.8-1.4 1.3-2c0.6-0.6 1.2-1 2-1.3 c0.8-0.3 1.6-0.5 2.4-0.5s1.6 0.2 2.4 0.5c0.8 0.3 1.4 0.8 2 1.3c0.6 0.6 1 1.2 1.3 2c0.3 0.8 0.5 1.6 0.5 2.4 c0 0.8-0.2 1.6-0.5 2.4c-0.3 0.8-0.8 1.4-1.3 2c-0.6 0.6-1.2 1-2 1.3c-0.8 0.3-1.6 0.5-2.4 0.5c-1.3 0-2.5-0.4-3.5-1.1l-3 3 C2.5 15 2.3 15.1 2 15.1c-0.3 0-0.6-0.1-0.8-0.3c-0.2-0.2-0.3-0.5-0.3-0.8C0.8 13.7 0.9 13.4 1.1 13.2z M6.5 9.4 c0.8 0.8 1.7 1.2 2.8 1.2c1.1 0 2-0.4 2.8-1.2c0.8-0.8 1.2-1.7 1.2-2.8c0-1.1-0.4-2-1.2-2.8s-1.7-1.2-2.8-1.2s-2 0.4-2.8 1.2 C5.7 4.6 5.3 5.6 5.3 6.6C5.3 7.7 5.7 8.7 6.5 9.4z"/>
	</symbol>
	<symbol class="i" id="exit" width="100%" height="100%" viewBox="0 0 16 16">
		<path class="g" d="M14.9 7.4L10.4 3c-0.1-0.1-0.2-0.2-0.4-0.2C9.9 2.9 9.8 2.9 9.7 3C9.6 3.1 9.6 3.3 9.6 3.4v2.3H5.9 c-0.1 0-0.3 0.1-0.4 0.2C5.5 6 5.4 6.1 5.4 6.2v3.1c0 0.1 0.1 0.3 0.2 0.4c0.1 0.1 0.2 0.2 0.4 0.2h3.6v2.3c0 0.1 0.1 0.3 0.2 0.4 c0.1 0.1 0.2 0.2 0.4 0.2c0.1 0 0.3-0.1 0.4-0.2l4.4-4.4C15 8.1 15 7.9 15 7.8C15 7.7 15 7.5 14.9 7.4z"/>
		<path class="g" d="M7.5 12.2c0 0 0-0.1 0-0.1c0 0 0-0.1-0.1-0.1c0 0-0.1 0-0.1 0c0 0 0 0-0.1 0c-0.1 0-0.1 0-0.1 0H7.1H7H4.6 c-0.4 0-0.7-0.1-0.9-0.4c-0.3-0.3-0.4-0.6-0.4-0.9V5c0-0.4 0.1-0.7 0.4-0.9C4 3.8 4.3 3.7 4.6 3.7h2.6c0.1 0 0.1 0 0.2-0.1 c0 0 0.1-0.1 0.1-0.2c0-0.1 0-0.1 0-0.2c0-0.1 0-0.1 0-0.2c0-0.1 0-0.1 0-0.2c0-0.1 0-0.1-0.1-0.2C7.4 2.6 7.3 2.6 7.2 2.6H4.6 C4 2.6 3.4 2.8 3 3.3C2.5 3.8 2.3 4.3 2.3 5v5.7c0 0.6 0.2 1.2 0.7 1.6C3.4 12.8 4 13 4.6 13h2.6c0.1 0 0.1 0 0.2-0.1 c0 0 0.1-0.1 0.1-0.2c0-0.1 0-0.1 0-0.2c0-0.1 0-0.1 0-0.2C7.5 12.3 7.5 12.2 7.5 12.2z"/>
	</symbol>
	<symbol class="i" id="signal" width="100%" height="100%" viewBox="0 0 16 16">
		<path class="g" d="M9.1 8.6H7.3c-0.1 0-0.2 0-0.2 0.1C7 8.7 7 8.8 7 8.9v5.3c0 0.1 0 0.2 0.1 0.2c0.1 0.1 0.1 0.1 0.2 0.1h1.8 c0.1 0 0.2 0 0.2-0.1c0.1-0.1 0.1-0.1 0.1-0.2V8.9c0-0.1 0-0.2-0.1-0.2C9.2 8.6 9.1 8.6 9.1 8.6z"/>
		<path class="g" d="M5.6 10.9H3.8c-0.1 0-0.2 0-0.2 0.1c-0.1 0.1-0.1 0.1-0.1 0.2v2.9c0 0.1 0 0.2 0.1 0.2 c0.1 0.1 0.1 0.1 0.2 0.1h1.8c0.1 0 0.2 0 0.2-0.1c0.1-0.1 0.1-0.1 0.1-0.2v-2.9c0-0.1 0-0.2-0.1-0.2C5.7 11 5.6 10.9 5.6 10.9z"/>
		<path class="g" d="M12.6 5.1h-1.8c-0.1 0-0.2 0-0.2 0.1c-0.1 0.1-0.1 0.1-0.1 0.2v8.8c0 0.1 0 0.2 0.1 0.2 c0.1 0.1 0.1 0.1 0.2 0.1h1.8c0.1 0 0.2 0 0.2-0.1c0.1-0.1 0.1-0.1 0.1-0.2V5.4c0-0.1 0-0.2-0.1-0.2C12.7 5.1 12.6 5.1 12.6 5.1z" />
	</symbol>
	<symbol class="i" id="people" width="100%" height="100%" viewBox="0 0 16 16">
		<path class="g" d="M4.4 5.7c0.5 0 0.9-0.2 1.2-0.5C5.9 4.8 6.1 4.4 6.1 4c0-0.5-0.2-0.9-0.5-1.2C5.2 2.4 4.8 2.3 4.4 2.3 c-0.5 0-0.9 0.2-1.2 0.5C2.8 3.1 2.7 3.5 2.7 4c0 0.5 0.2 0.9 0.5 1.2C3.5 5.5 3.9 5.7 4.4 5.7z"/>
		<path class="g" d="M6.4 8.3c0.5 0.5 1.1 0.7 1.8 0.7S9.5 8.8 10 8.3c0.5-0.5 0.7-1.1 0.7-1.8c0-0.7-0.2-1.3-0.7-1.8 C9.5 4.2 8.9 4 8.2 4S6.9 4.2 6.4 4.7C5.9 5.2 5.6 5.8 5.6 6.5C5.6 7.2 5.9 7.8 6.4 8.3z"/>
		<path class="g" d="M12 5.7c0.5 0 0.9-0.2 1.2-0.5c0.3-0.3 0.5-0.7 0.5-1.2c0-0.5-0.2-0.9-0.5-1.2c-0.3-0.3-0.7-0.5-1.2-0.5 c-0.5 0-0.9 0.2-1.2 0.5c-0.3 0.3-0.5 0.7-0.5 1.2c0 0.5 0.2 0.9 0.5 1.2C11.1 5.5 11.5 5.7 12 5.7z"/>
		<path class="g" d="M13.7 5.7c0 0-0.1 0-0.3 0.1c-0.2 0.1-0.4 0.2-0.6 0.3c-0.3 0.1-0.5 0.1-0.8 0.1c-0.3 0-0.6-0.1-0.9-0.2 c0 0.2 0 0.3 0 0.4c0 0.6-0.2 1.2-0.5 1.7c0.7 0 1.3 0.3 1.8 0.9h0.9c0.4 0 0.7-0.1 0.9-0.3c0.2-0.2 0.4-0.4 0.4-0.8 C14.6 6.5 14.3 5.7 13.7 5.7z"/>
		<path class="g" d="M12.7 11.1c0-0.3-0.1-0.5-0.2-0.7c-0.1-0.2-0.2-0.4-0.3-0.6c-0.1-0.2-0.3-0.4-0.4-0.5 c-0.2-0.1-0.3-0.3-0.6-0.4c-0.2-0.1-0.5-0.1-0.7-0.1c0 0-0.1 0-0.3 0.1C10.1 8.9 10 9 9.8 9.1C9.6 9.2 9.4 9.3 9.1 9.4 C8.8 9.5 8.5 9.6 8.2 9.6c-0.3 0-0.6 0-0.9-0.1C7 9.3 6.7 9.2 6.6 9.1S6.2 8.9 6.1 8.8C5.9 8.7 5.8 8.7 5.8 8.7 c-0.3 0-0.5 0-0.7 0.1C4.8 8.9 4.6 9 4.5 9.1C4.3 9.3 4.2 9.5 4.1 9.7C4 9.9 3.9 10.1 3.8 10.3c-0.1 0.2-0.1 0.5-0.2 0.7 c0 0.3-0.1 0.5-0.1 0.7c0 0.2 0 0.5 0 0.7c0 0.5 0.2 1 0.5 1.3c0.3 0.3 0.8 0.5 1.3 0.5h5.8c0.5 0 1-0.2 1.3-0.5 c0.3-0.3 0.5-0.7 0.5-1.3c0-0.2 0-0.5 0-0.7C12.8 11.6 12.8 11.3 12.7 11.1z"/>
		<path class="g" d="M5.7 8.2C5.4 7.7 5.2 7.1 5.2 6.5c0-0.1 0-0.3 0-0.4C4.9 6.2 4.6 6.2 4.4 6.2c-0.3 0-0.5 0-0.8-0.1 C3.3 6 3.1 5.9 2.9 5.8C2.7 5.7 2.7 5.7 2.6 5.7C2.1 5.7 1.8 6.5 1.8 8c0 0.3 0.1 0.6 0.4 0.8C2.4 9 2.7 9.1 3.1 9.1H4 C4.4 8.5 5 8.3 5.7 8.2z"/>
	</symbol>
	<symbol class="i" id="tablet" width="100%" height="100%" viewBox="0 0 16 16">
		<path class="g" d="M13.1 0.9c-0.3-0.3-0.7-0.5-1.2-0.5H4.4C4 0.4 3.6 0.6 3.2 0.9C2.9 1.3 2.7 1.6 2.7 2.1v11.5 c0 0.5 0.2 0.9 0.5 1.2c0.3 0.3 0.7 0.5 1.2 0.5h7.5c0.5 0 0.9-0.2 1.2-0.5c0.3-0.3 0.5-0.7 0.5-1.2V2.1 C13.6 1.6 13.5 1.2 13.1 0.9z M8.6 14.5c-0.1 0.1-0.3 0.2-0.5 0.2c-0.2 0-0.3-0.1-0.5-0.2c-0.1-0.1-0.2-0.3-0.2-0.5 c0-0.2 0.1-0.3 0.2-0.5c0.1-0.1 0.3-0.2 0.5-0.2c0.2 0 0.3 0.1 0.5 0.2c0.1 0.1 0.2 0.3 0.2 0.5C8.9 14.2 8.8 14.3 8.6 14.5z  M11.6 12.3c0 0.1 0 0.2-0.1 0.2c-0.1 0.1-0.1 0.1-0.2 0.1H5.1c-0.1 0-0.2 0-0.2-0.1c-0.1-0.1-0.1-0.1-0.1-0.2V2.8 c0-0.1 0-0.2 0.1-0.2C4.9 2.5 5 2.4 5.1 2.4h6.2c0.1 0 0.2 0 0.2 0.1c0.1 0.1 0.1 0.1 0.1 0.2V12.3z"/>
	</symbol>
	<symbol class="i" id="phone" width="100%" height="100%" viewBox="0 0 16 16">
		<path class="g" d="M14.5 10.9c0-0.1-0.2-0.2-0.6-0.4c-0.1-0.1-0.3-0.1-0.4-0.2c-0.2-0.1-0.4-0.2-0.5-0.3 c-0.2-0.1-0.3-0.2-0.4-0.3c0 0-0.1-0.1-0.2-0.1C12.1 9.4 12 9.4 12 9.3c-0.1 0-0.2-0.1-0.2-0.1c-0.1 0-0.2 0.1-0.4 0.2 C11.1 9.7 11 9.8 10.9 10c-0.1 0.2-0.3 0.4-0.4 0.5c-0.2 0.2-0.3 0.2-0.4 0.2c0 0-0.1 0-0.2 0c-0.1 0-0.1-0.1-0.2-0.1 c0 0-0.1-0.1-0.2-0.1c-0.1-0.1-0.1-0.1-0.2-0.1C8.6 10 7.9 9.5 7.4 9c-0.5-0.5-1-1.2-1.4-1.9c0 0 0-0.1-0.1-0.2 C5.8 6.8 5.8 6.7 5.7 6.7c0 0 0-0.1-0.1-0.2c0-0.1 0-0.1 0-0.2c0-0.1 0.1-0.2 0.2-0.4C6 5.8 6.2 5.7 6.4 5.5 c0.2-0.1 0.4-0.3 0.5-0.5C7 4.9 7.1 4.8 7.1 4.7c0-0.1 0-0.2-0.1-0.2C7 4.3 7 4.3 6.9 4.1C6.8 4 6.8 4 6.7 3.9 C6.7 3.8 6.6 3.6 6.5 3.5C6.4 3.3 6.3 3.2 6.2 3C6.1 2.8 6 2.6 5.9 2.5C5.8 2.1 5.6 1.9 5.5 1.9c0 0-0.1 0-0.2 0 c-0.1 0-0.3 0-0.6 0.1C4.5 2 4.3 2.1 4.2 2.1c-0.3 0.1-0.6 0.5-0.9 1C3 3.6 2.9 4.2 2.9 4.7c0 0.1 0 0.3 0 0.4C2.9 5.2 3 5.4 3 5.6 c0 0.2 0.1 0.3 0.1 0.4c0 0.1 0.1 0.2 0.2 0.5c0.1 0.2 0.1 0.4 0.1 0.4c0.2 0.5 0.4 1 0.7 1.4c0.4 0.7 1 1.4 1.8 2.2 c0.8 0.8 1.5 1.3 2.2 1.8c0.4 0.3 0.9 0.5 1.4 0.7c0 0 0.2 0.1 0.4 0.1c0.2 0.1 0.4 0.1 0.5 0.2c0.1 0 0.2 0.1 0.4 0.1 c0.2 0 0.3 0.1 0.5 0.1c0.1 0 0.3 0 0.4 0c0.5 0 1-0.1 1.5-0.4c0.6-0.3 0.9-0.6 1-0.9c0.1-0.1 0.1-0.3 0.2-0.6 c0.1-0.2 0.1-0.4 0.1-0.6C14.5 11 14.5 10.9 14.5 10.9z"/>
	</symbol>
	<symbol class="i" id="thumbUp" width="100%" height="100%" viewBox="0 0 16 16">
		<path class="w" d="M14.9 8.9c0.3-0.4 0.5-0.8 0.5-1.3c0-0.5-0.2-0.9-0.5-1.2c-0.3-0.3-0.7-0.5-1.2-0.5h-2.5c0-0.1 0-0.2 0.1-0.2 c0-0.1 0.1-0.1 0.1-0.2c0-0.1 0.1-0.1 0.1-0.2c0.1-0.2 0.2-0.4 0.2-0.5c0.1-0.1 0.1-0.3 0.2-0.5c0.1-0.2 0.1-0.5 0.1-0.7 c0-0.1 0-0.3 0-0.4c0-0.1 0-0.2 0-0.4c0-0.2-0.1-0.3-0.1-0.5c0-0.1-0.1-0.3-0.2-0.4c-0.1-0.2-0.2-0.3-0.4-0.4 c-0.1-0.1-0.3-0.2-0.5-0.2c-0.2-0.1-0.5-0.1-0.7-0.1c-0.2 0-0.3 0.1-0.4 0.2C9.4 1.5 9.3 1.6 9.2 1.8C9.1 2 9.1 2.1 9 2.3 C9 2.4 9 2.6 8.9 2.8C8.9 3.1 8.8 3.2 8.8 3.4c0 0.1-0.1 0.3-0.2 0.4C8.6 4 8.5 4.1 8.4 4.2C8.2 4.4 7.8 4.8 7.4 5.3 C7.1 5.7 6.8 6.1 6.5 6.4C6.2 6.7 6 6.9 5.8 6.9C5.7 6.9 5.6 7 5.5 7.1C5.3 7.2 5.3 7.4 5.3 7.5v5.8c0 0.2 0.1 0.3 0.2 0.4 c0.1 0.1 0.2 0.2 0.4 0.2c0.2 0 0.7 0.1 1.4 0.4c0.5 0.2 0.8 0.3 1.1 0.4c0.3 0.1 0.6 0.2 1.1 0.3C9.9 15 10.4 15 10.8 15h0.2h0.7 h0.3c0.8 0 1.4-0.2 1.8-0.7c0.3-0.4 0.5-1 0.4-1.6c0.2-0.2 0.4-0.5 0.5-0.8c0.1-0.4 0.1-0.7 0-1.1c0.3-0.4 0.4-0.8 0.4-1.2 C15 9.4 15 9.1 14.9 8.9z"/>
		<path class="w" d="M4.1 6.9H1.5C1.4 6.9 1.2 7 1.1 7.1C1 7.2 1 7.4 1 7.5v5.8c0 0.2 0.1 0.3 0.2 0.4c0.1 0.1 0.2 0.2 0.4 0.2h2.6 c0.2 0 0.3-0.1 0.4-0.2c0.1-0.1 0.2-0.2 0.2-0.4V7.5c0-0.2-0.1-0.3-0.2-0.4C4.4 7 4.3 6.9 4.1 6.9z M3.1 12.6 c-0.1 0.1-0.2 0.2-0.4 0.2c-0.2 0-0.3-0.1-0.4-0.2c-0.1-0.1-0.2-0.2-0.2-0.4c0-0.2 0.1-0.3 0.2-0.4c0.1-0.1 0.2-0.2 0.4-0.2 c0.2 0 0.3 0.1 0.4 0.2c0.1 0.1 0.2 0.2 0.2 0.4C3.3 12.3 3.2 12.4 3.1 12.6z"/>
	</symbol>
	<symbol class="i" id="mapMarker" width="100%" height="100%" viewBox="0 0 16 16">
		<path class="w" d="M11.1 2c-1-1-2.2-1.5-3.6-1.5S4.9 1 3.9 2S2.5 4.2 2.5 5.6c0 0.7 0.1 1.3 0.3 1.8L6.4 15 c0.1 0.2 0.3 0.4 0.5 0.5c0.2 0.1 0.4 0.2 0.7 0.2c0.2 0 0.5-0.1 0.7-0.2c0.2-0.1 0.4-0.3 0.5-0.5l3.6-7.6c0.2-0.5 0.3-1.1 0.3-1.8 C12.6 4.2 12.1 3 11.1 2z M9.3 7.4C8.8 7.9 8.2 8.1 7.5 8.1S6.2 7.9 5.7 7.4C5.2 6.9 5 6.3 5 5.6c0-0.7 0.2-1.3 0.7-1.8 C6.2 3.3 6.8 3 7.5 3c0.7 0 1.3 0.2 1.8 0.7C9.8 4.3 10 4.9 10 5.6S9.8 6.9 9.3 7.4z"/>
	</symbol>
	<symbol class="i" id="star" width="100%" height="100%" viewBox="0 0 16 16">
		<polygon class="t" points="6 6.1 8 0.4 10 6.1 16 6.2 11.2 9.8 12.9 15.6 8 12.2 3.1 15.6 4.8 9.8 0 6.2"/>
	</symbol>
	<symbol class="i" id="pdf" width="100%" height="100%" viewBox="0 0 16 16">
		<path class="b" d="M14.2 3.8c0.2 0.2 0.3 0.4 0.4 0.6c0.1 0.3 0.2 0.5 0.2 0.7v9.4c0 0.2-0.1 0.4-0.2 0.6 c-0.2 0.2-0.3 0.2-0.6 0.2h-11c-0.2 0-0.4-0.1-0.6-0.2c-0.2-0.2-0.2-0.3-0.2-0.6V1.4c0-0.2 0.1-0.4 0.2-0.6 c0.2-0.2 0.3-0.2 0.6-0.2h7.3c0.2 0 0.5 0.1 0.7 0.2s0.5 0.2 0.6 0.4L14.2 3.8z M10.5 1.8v3.1h3.1c-0.1-0.2-0.1-0.3-0.2-0.3 L10.9 2C10.8 1.9 10.7 1.8 10.5 1.8z M13.7 14.3V5.9h-3.4c-0.2 0-0.4-0.1-0.6-0.2C9.6 5.5 9.5 5.3 9.5 5.1V1.7H3.2v12.6H13.7z M9.5 9.4c0.2 0.1 0.4 0.3 0.7 0.5c0.3 0 0.6-0.1 1-0.1c0.8 0 1.3 0.1 1.4 0.4c0.1 0.1 0.1 0.3 0 0.4c0 0 0 0 0 0l0 0v0 c0 0.2-0.2 0.3-0.6 0.3c-0.3 0-0.6-0.1-0.9-0.2s-0.7-0.3-1.1-0.4c-1.2 0.1-2.3 0.4-3.2 0.7c-0.8 1.4-1.5 2.1-2 2.1 c-0.1 0-0.2 0-0.2-0.1l-0.2-0.1c0 0 0 0 0 0c-0.1-0.1-0.1-0.2 0-0.3c0-0.2 0.2-0.5 0.5-0.7s0.6-0.5 1.1-0.8c0.1 0 0.1 0 0.2 0 c0 0 0 0 0 0c0.3-0.5 0.6-1 0.9-1.6c0.4-0.7 0.7-1.5 0.9-2.1C7.6 7.1 7.5 6.6 7.5 6.2c0-0.4 0-0.8 0.1-1C7.6 5 7.7 4.9 7.9 4.9H8 c0.1 0 0.2 0 0.3 0.1c0.1 0.1 0.1 0.3 0.1 0.6c0 0 0 0.1 0 0.1c0 0 0 0 0 0.1v0.2c0 0.7 0 1.2-0.1 1.6C8.6 8.4 9 9 9.5 9.4z M4.7 12.8c0.3-0.1 0.7-0.6 1.1-1.3c-0.3 0.2-0.5 0.4-0.7 0.7C5 12.4 4.8 12.6 4.7 12.8z M8 5.3C7.9 5.5 7.9 5.9 8 6.3 C8 6.3 8 6.2 8 6c0 0 0-0.1 0.1-0.4c0 0 0 0 0-0.1c0 0 0 0 0 0c0 0 0 0 0 0c0 0 0 0 0 0C8.1 5.4 8.1 5.3 8 5.3C8 5.2 8 5.2 8 5.3 L8 5.3z M7 10.7c0.7-0.3 1.5-0.5 2.3-0.7c0 0 0 0-0.1-0.1c-0.1 0-0.1-0.1-0.1-0.1C8.7 9.5 8.3 9 8 8.4c-0.1 0.5-0.4 1-0.7 1.6 C7.2 10.3 7.1 10.5 7 10.7z M12.3 10.5c-0.1-0.1-0.5-0.2-1.1-0.2c0.4 0.2 0.8 0.2 1 0.2C12.2 10.6 12.3 10.6 12.3 10.5 C12.3 10.6 12.3 10.6 12.3 10.5z"/>
	</symbol>
	<symbol class="i" id="checkmark" width="100%" height="100%" viewBox="0 0 16 16">
		<path class="b" d="M15.7 3.6l-1.4-1.4c-0.2-0.2-0.4-0.3-0.7-0.3c-0.3 0-0.5 0.1-0.7 0.3L6.1 8.9l-3-3C2.9 5.7 2.7 5.6 2.4 5.6 c-0.3 0-0.5 0.1-0.7 0.3L0.3 7.3C0.1 7.5 0 7.7 0 8c0 0.3 0.1 0.5 0.3 0.7L4 12.4l1.4 1.4c0.2 0.2 0.4 0.3 0.7 0.3 c0.3 0 0.5-0.1 0.7-0.3l1.4-1.4L15.7 5C15.9 4.8 16 4.5 16 4.3C16 4 15.9 3.8 15.7 3.6z"/>
	</symbol>
	<symbol class="i" id="plus" width="100%" height="100%" viewBox="0 0 16 16">
		<path class="b" d="M15.1 0.9C14.5 0.3 13.7 0 12.9 0H3.1C2.2 0 1.5 0.3 0.9 0.9S0 2.2 0 3.1v9.8c0 0.9 0.3 1.6 0.9 2.2 C1.5 15.7 2.2 16 3.1 16h9.8c0.9 0 1.6-0.3 2.2-0.9c0.6-0.6 0.9-1.3 0.9-2.2V3.1C16 2.2 15.7 1.5 15.1 0.9z M14.2 12.9 c0 0.4-0.1 0.7-0.4 0.9c-0.3 0.3-0.6 0.4-0.9 0.4H3.1c-0.4 0-0.7-0.1-0.9-0.4c-0.3-0.3-0.4-0.6-0.4-0.9V3.1c0-0.4 0.1-0.7 0.4-0.9 c0.3-0.3 0.6-0.4 0.9-0.4h9.8c0.4 0 0.7 0.1 0.9 0.4c0.3 0.3 0.4 0.6 0.4 0.9V12.9z"/>
		<path class="b" d="M12 7.1H8.9V4c0-0.1 0-0.2-0.1-0.3C8.7 3.6 8.6 3.6 8.4 3.6H7.6c-0.1 0-0.2 0-0.3 0.1C7.2 3.8 7.1 3.9 7.1 4 v3.1H4c-0.1 0-0.2 0-0.3 0.1C3.6 7.3 3.6 7.4 3.6 7.6v0.9c0 0.1 0 0.2 0.1 0.3C3.8 8.8 3.9 8.9 4 8.9h3.1V12c0 0.1 0 0.2 0.1 0.3 c0.1 0.1 0.2 0.1 0.3 0.1h0.9c0.1 0 0.2 0 0.3-0.1c0.1-0.1 0.1-0.2 0.1-0.3V8.9H12c0.1 0 0.2 0 0.3-0.1c0.1-0.1 0.1-0.2 0.1-0.3 V7.6c0-0.1 0-0.2-0.1-0.3C12.2 7.2 12.1 7.1 12 7.1z"/>
	</symbol>
	<symbol class="i" id="minus" width="100%" height="100%" viewBox="0 0 16 16">
		<path d="M15.1 0.9C14.5 0.3 13.7 0 12.9 0H3.1C2.2 0 1.5 0.3 0.9 0.9C0.3 1.5 0 2.2 0 3.1v9.8c0 0.9 0.3 1.6 0.9 2.2 C1.5 15.7 2.2 16 3.1 16h9.8c0.9 0 1.6-0.3 2.2-0.9c0.6-0.6 0.9-1.3 0.9-2.2V3.1C16 2.2 15.7 1.5 15.1 0.9z M14.2 12.9 c0 0.4-0.1 0.7-0.4 0.9c-0.3 0.3-0.6 0.4-0.9 0.4H3.1c-0.4 0-0.7-0.1-0.9-0.4c-0.3-0.3-0.4-0.6-0.4-0.9V3.1c0-0.4 0.1-0.7 0.4-0.9 c0.3-0.3 0.6-0.4 0.9-0.4h9.8c0.4 0 0.7 0.1 0.9 0.4s0.4 0.6 0.4 0.9V12.9z"/>
		<path d="M12 7.1H4c-0.1 0-0.2 0-0.3 0.1C3.6 7.3 3.6 7.4 3.6 7.6v0.9c0 0.1 0 0.2 0.1 0.3C3.8 8.8 3.9 8.9 4 8.9h8 c0.1 0 0.2 0 0.3-0.1c0.1-0.1 0.1-0.2 0.1-0.3V7.6c0-0.1 0-0.2-0.1-0.3C12.2 7.2 12.1 7.1 12 7.1z"/>
	</symbol>
	<symbol class="i" id="ting" width="100%" height="100%" viewBox="0 0 16 16">
		<path class="t" d="M4.66 5.05c-0.5 0-0.86-0.41-0.86-0.91c0-0.5 0.36-0.91 0.86-0.91c0.5 0 0.86 0.41 0.86 0.91 C5.52 4.64 5.16 5.05 4.66 5.05z"/>
		<path class="t" d="M10.23 11.24H9.35c-0.17 0-0.31-0.14-0.31-0.31V7.24c0-0.28-0.12-0.49-0.48-0.49c-0.5 0-0.86 0.48-0.86 1.15 v3.02c0 0.17-0.14 0.31-0.31 0.31H6.51c-0.17 0-0.31-0.14-0.31-0.31V5.88c0-0.17 0.14-0.31 0.31-0.31h0.67 c0.19 0 0.29 0.12 0.32 0.28l0.08 0.37c0.44-0.48 0.93-0.73 1.53-0.73c0.87 0 1.43 0.58 1.43 1.46v3.98 C10.55 11.1 10.41 11.24 10.23 11.24z"/>
		<path class="t" d="M13.52 13.61c-1.24 0-2.43-0.41-2.47-1.76c0-0.17 0.14-0.34 0.31-0.33l0.83 0.03 c0.19 0.01 0.24 0.12 0.29 0.29c0.12 0.47 0.59 0.59 1.07 0.59c0.75 0 1.1-0.3 1.1-0.68c0-0.4-0.15-0.51-0.72-0.51h-1.21 c-0.61 0-1.38-0.19-1.38-1.06c0-0.37 0.2-0.68 0.46-0.92c-0.48-0.36-0.77-0.93-0.77-1.65c0-1.35 0.88-2.11 2.24-2.11 c0.25 0 0.48 0.05 0.72 0.05h1.38c0.27 0 0.36 0.12 0.36 0.33v0.37c0 0.26-0.06 0.3-0.22 0.34l-0.3 0.07 c0.17 0.29 0.32 0.58 0.32 0.96c0 1.29-0.85 2.12-2.25 2.12c-0.19 0-0.37-0.02-0.54-0.06C12.7 9.76 12.67 9.8 12.67 9.9 c0 0.2 0.19 0.22 0.37 0.22h1.09c1.14 0 1.87 0.51 1.87 1.56C16 13.16 14.59 13.61 13.52 13.61z M13.3 6.63 c-0.44 0-0.78 0.13-0.78 0.97c0 0.89 0.35 1.02 0.78 1.02c0.39 0 0.79-0.17 0.79-1.02C14.08 6.75 13.72 6.63 13.3 6.63z"/>
		<path class="t" d="M5.12 5.57H2.41c0 0 0-1.29 0-1.3V3.91c0-0.18-0.14-0.31-0.31-0.31H1.22C1.04 3.6 0.9 3.74 0.9 3.91l0 1.65 H0.31C0.14 5.57 0 5.71 0 5.88v0.51c0 0.17 0.14 0.31 0.31 0.31H0.9v3.17c0 0.89 0.38 1.44 1.35 1.44c0.41 0 0.85-0.07 1.12-0.16 c0.15-0.05 0.22-0.16 0.2-0.31l-0.14-0.73C3.4 9.92 3.28 9.85 3.1 9.9C3.01 9.92 2.86 9.93 2.76 9.93c-0.21 0-0.35-0.14-0.35-0.45 V6.71h1.52v4.22c0 0.17 0.14 0.31 0.31 0.31h0.88c0.17 0 0.31-0.14 0.31-0.31V5.88C5.44 5.71 5.3 5.57 5.12 5.57z"/>
	</symbol>
	<symbol class="i" id="fedex5Day" width="100%" height="100%" viewBox="0 0 146 146">
		<g fill="#40A629">
			<polygon points="132.3 100.5 126.4 93.9 120.5 100.5 108.2 100.5 120.2 87 108.2 73.4 120.9 73.4 126.9 80 132.6 73.4 144.8 73.4 132.9 86.9 145 100.5 	"/>
			<polygon points="84.6 100.5 84.6 57.9 108.2 57.9 108.2 67.4 94.6 67.4 94.6 73.4 108.2 73.4 108.2 82.6 94.6 82.6 94.6 91 108.2 91 108.2 100.5 	"/>
		</g>
		<path fill="#2A007C" d="M74.6 57.9v17.4h-0.1c-2.2-2.5-5-3.4-8.2-3.4c-6.6 0-11.5 4.5-13.2 10.3c-2-6.5-7.1-10.5-14.6-10.5 c-6.1 0-11 2.8-13.5 7.2v-5.6H12.3v-6.1h13.8v-9.5H1v42.6h11.3V82.6h11.3c-0.3 1.3-0.5 2.7-0.5 4.2c0 8.9 6.8 15.1 15.4 15.1 c7.3 0 12.1-3.4 14.6-9.6h-9.7c-1.3 1.9-2.3 2.4-4.9 2.4c-3 0-5.7-2.7-5.7-5.8h19.7c0.9 7.1 6.3 13.1 13.9 13.1 c3.3 0 6.2-1.6 8.1-4.3h0.1v2.8h10V57.9L74.6 57.9L74.6 57.9z M33.2 82.7c0.6-2.7 2.7-4.5 5.3-4.5c2.9 0 4.9 1.7 5.4 4.5 C43.9 82.7 33.2 82.7 33.2 82.7z M68.6 94c-3.7 0-6-3.4-6-7c0-3.8 2-7.5 6-7.5c4.1 0 5.8 3.7 5.8 7.5C74.3 90.6 72.6 94 68.6 94z"/>
	</symbol>
	<symbol class="i" id="fedex3Day" width="100%" height="100%" viewBox="0 0 146 146">
		<g fill="#FF6600">
			<polygon points="132.3 100.5 126.4 93.9 120.5 100.5 108.2 100.5 120.2 87 108.2 73.4 120.9 73.4 126.9 80 132.6 73.4 144.8 73.4 132.9 86.9 145 100.5 	"/>
			<polygon points="84.6 100.5 84.6 57.9 108.2 57.9 108.2 67.4 94.6 67.4 94.6 73.4 108.2 73.4 108.2 82.6 94.6 82.6 94.6 91 108.2 91 108.2 100.5 	"/>
		</g>
		<path fill="#2A007C" d="M74.6 57.9v17.4h-0.1c-2.2-2.5-5-3.4-8.2-3.4c-6.6 0-11.5 4.5-13.2 10.3c-2-6.5-7.1-10.5-14.6-10.5 c-6.1 0-11 2.8-13.5 7.2v-5.6H12.3v-6.1h13.8v-9.5H1v42.6h11.3V82.6h11.3c-0.3 1.3-0.5 2.7-0.5 4.2c0 8.9 6.8 15.1 15.4 15.1 c7.3 0 12.1-3.4 14.6-9.6h-9.7c-1.3 1.9-2.3 2.4-4.9 2.4c-3 0-5.7-2.7-5.7-5.8h19.7c0.9 7.1 6.3 13.1 13.9 13.1 c3.3 0 6.2-1.6 8.1-4.3h0.1v2.8h10V57.9L74.6 57.9L74.6 57.9z M33.2 82.7c0.6-2.7 2.7-4.5 5.3-4.5c2.9 0 4.9 1.7 5.4 4.5 C43.9 82.7 33.2 82.7 33.2 82.7z M68.6 94c-3.7 0-6-3.4-6-7c0-3.8 2-7.5 6-7.5c4.1 0 5.8 3.7 5.8 7.5C74.3 90.6 72.6 94 68.6 94z"/>
	</symbol>
	<symbol class="i" id="fedex2Day" width="100%" height="100%" viewBox="0 0 146 146">
		<g fill="#9E9E9E">
			<polygon points="132.3 100.5 126.4 93.9 120.5 100.5 108.2 100.5 120.2 87 108.2 73.4 120.9 73.4 126.9 80 132.6 73.4 144.8 73.4 132.9 86.9 145 100.5 	"/>
			<polygon points="84.6 100.5 84.6 57.9 108.2 57.9 108.2 67.4 94.6 67.4 94.6 73.4 108.2 73.4 108.2 82.6 94.6 82.6 94.6 91 108.2 91 108.2 100.5 	"/>
		</g>
		<path fill="#2A007C" d="M74.6 57.9v17.4h-0.1c-2.2-2.5-5-3.4-8.2-3.4c-6.6 0-11.5 4.5-13.2 10.3c-2-6.5-7.1-10.5-14.6-10.5 c-6.1 0-11 2.8-13.5 7.2v-5.6H12.3v-6.1h13.8v-9.5H1v42.6h11.3V82.6h11.3c-0.3 1.3-0.5 2.7-0.5 4.2c0 8.9 6.8 15.1 15.4 15.1 c7.3 0 12.1-3.4 14.6-9.6h-9.7c-1.3 1.9-2.3 2.4-4.9 2.4c-3 0-5.7-2.7-5.7-5.8h19.7c0.9 7.1 6.3 13.1 13.9 13.1 c3.3 0 6.2-1.6 8.1-4.3h0.1v2.8h10V57.9L74.6 57.9L74.6 57.9z M33.2 82.7c0.6-2.7 2.7-4.5 5.3-4.5c2.9 0 4.9 1.7 5.4 4.5 C43.9 82.7 33.2 82.7 33.2 82.7z M68.6 94c-3.7 0-6-3.4-6-7c0-3.8 2-7.5 6-7.5c4.1 0 5.8 3.7 5.8 7.5C74.3 90.6 72.6 94 68.6 94z"/>
	</symbol>
	<symbol class="i" id="usps" width="100%" height="100%" viewBox="0 0 16 16">
		<path fill="#EE2833" d="M0 5.6h0.9c0.1 0 0.2 0 0.3 0.1c0.1 0 0.2 0.1 0.3 0.2C1.6 5.8 1.6 5.9 1.7 6c0 0.1 0.1 0.2 0.1 0.3v0 c0 0.1 0 0.2-0.1 0.3c0 0.1-0.1 0.2-0.2 0.2C1.4 6.9 1.3 7 1.2 7c-0.1 0-0.2 0-0.3 0H0.5v0.6H0V5.6z M0.9 6.7c0.1 0 0.2 0 0.3-0.1 c0.1-0.1 0.1-0.1 0.1-0.2v0c0-0.1 0-0.2-0.1-0.2C1.1 6 1 6 0.9 6H0.5v0.7H0.9z"/>
		<path fill="#EE2833" d="M2.2 5.6h1c0.3 0 0.5 0.1 0.6 0.2C3.9 5.9 4 6.1 4 6.3v0c0 0.2 0 0.3-0.1 0.4C3.8 6.8 3.7 6.9 3.5 7l0.5 0.8 H3.5L3 7h0H2.7v0.7H2.2V5.6z M3.2 6.6c0.1 0 0.2 0 0.3-0.1c0.1-0.1 0.1-0.1 0.1-0.2v0c0-0.1 0-0.2-0.1-0.2C3.4 6 3.3 6 3.1 6H2.7 v0.6H3.2z"/>
		<rect x="4.6" y="5.6" fill="#EE2833" width="0.5" height="2.1"/>
		<path fill="#EE2833" d="M6.8 7.8c-0.2 0-0.3 0-0.5-0.1C6.2 7.6 6 7.5 5.9 7.4C5.8 7.3 5.8 7.2 5.7 7.1C5.6 6.9 5.6 6.8 5.6 6.7v0 c0-0.2 0-0.3 0.1-0.4C5.8 6.1 5.8 6 5.9 5.9C6 5.8 6.2 5.7 6.3 5.6c0.1-0.1 0.3-0.1 0.5-0.1c0.2 0 0.3 0 0.5 0.1 c0.1 0.1 0.3 0.1 0.4 0.2C7.7 6 7.8 6.1 7.8 6.2c0.1 0.1 0.1 0.3 0.1 0.4v0c0 0.2 0 0.3-0.1 0.4C7.8 7.2 7.7 7.3 7.6 7.4 C7.5 7.5 7.4 7.6 7.2 7.7C7.1 7.7 6.9 7.8 6.8 7.8 M6.8 7.3c0.1 0 0.2 0 0.3-0.1c0.1 0 0.1-0.1 0.2-0.1C7.3 7.1 7.3 7 7.4 6.9 c0-0.1 0-0.2 0-0.3v0c0-0.1 0-0.2 0-0.3c0-0.1-0.1-0.2-0.1-0.2C7.2 6.1 7.1 6.1 7 6C6.9 6 6.8 6 6.8 6C6.7 6 6.6 6 6.5 6 c-0.1 0-0.1 0.1-0.2 0.1C6.2 6.2 6.2 6.3 6.2 6.4c0 0.1 0 0.2 0 0.3v0c0 0.1 0 0.2 0 0.3c0 0.1 0.1 0.2 0.1 0.2 c0.1 0.1 0.1 0.1 0.2 0.1C6.6 7.3 6.7 7.3 6.8 7.3"/>
		<path fill="#EE2833" d="M8.4 5.6h1c0.3 0 0.5 0.1 0.6 0.2c0.1 0.1 0.2 0.3 0.2 0.5v0c0 0.2 0 0.3-0.1 0.4C10 6.8 9.9 6.9 9.8 7 l0.5 0.8H9.8L9.3 7h0H8.9v0.7H8.4V5.6z M9.4 6.6c0.1 0 0.2 0 0.3-0.1c0.1-0.1 0.1-0.1 0.1-0.2v0c0-0.1 0-0.2-0.1-0.2 C9.6 6 9.5 6 9.4 6H8.9v0.6H9.4z"/>
		<rect x="10.8" y="5.6" fill="#EE2833" width="0.5" height="2.1"/>
		<polygon fill="#EE2833" points="12.5 6 11.8 6 11.8 5.6 13.6 5.6 13.6 6 12.9 6 12.9 7.7 12.5 7.7"/>
		<polygon fill="#EE2833" points="14.7 6.9 13.8 5.6 14.4 5.6 14.9 6.4 15.4 5.6 16 5.6 15.1 6.9 15.1 7.7 14.7 7.7"/>
		<polygon fill="#EE2833" points="3.8 8.6 4.2 8.6 4.7 9.3 5.2 8.6 5.6 8.6 5.6 10.3 5.2 10.3 5.2 9.2 4.7 9.9 4.7 9.9 4.2 9.2 4.2 10.3 3.8 10.3"/>
		<path fill="#EE2833" d="M7.2 8.6h0.4l0.8 1.8H7.9L7.8 9.9H7l-0.2 0.4H6.4L7.2 8.6z M7.6 9.6L7.4 9L7.1 9.6H7.6z"/>
		<rect x="9.2" y="8.6" fill="#EE2833" width="0.4" height="1.8"/>
		<polygon fill="#EE2833" points="10.6 8.6 11 8.6 11 10 11.9 10 11.9 10.3 10.6 10.3"/>
		<polygon fill="#EE2833" points="1 9.2 2.5 9.2 1.3 10 1.7 8.6 2.2 10"/>
		<polygon fill="#EE2833" points="13.2 9.2 14.7 9.2 13.5 10 13.9 8.6 14.4 10"/>
	</symbol>
	<symbol class="i" id="mastercard" width="100%" height="100%" viewBox="-116.5 250.1 198 125">
		<path fill="#F79F1A" d="M50.1 301.88c0 23.13-18.71 41.88-41.81 41.88s-41.81-18.75-41.81-41.88S-14.81 260 8.29 260 50.1 278.75 50.1 301.88"/>
		<path fill="#EA001B" d="M-1.48 301.88c0 23.13-18.71 41.88-41.81 41.88s-41.81-18.75-41.81-41.88S-66.38 260-43.29 260 -1.48 278.75-1.48 301.88"/>
		<path fill="#FF5F01" d="M-17.5 268.91c-9.77 7.65-16.02 19.57-16.02 32.97s6.25 25.32 16.02 32.97c9.77-7.65 16.02-19.61 16.02-32.97C-1.48 288.48-7.73 276.56-17.5 268.91"/>
		<path fill="#F79F1A" d="M47.55 324.11v-1.26h0.5v-0.25h-1.26v0.25h0.5v1.26C47.26 324.11 47.55 324.11 47.55 324.11zM50.02 324.11v-1.51h-0.4l-0.47 1.04 -0.47-1.04h-0.4v1.51h0.29V323l0.43 0.97h0.29l0.43-0.97v1.11C49.74 324.11 50.02 324.11 50.02 324.11z"/>
		<path d="M-75.79 364.48h-2.37v-11.06h2.33v1.36c0 0 2.05-1.65 3.27-1.62 2.37 0.04 3.77 2.05 3.77 2.05s1.15-2.05 3.74-2.05c3.81 0 4.38 3.48 4.38 3.48v7.83h-2.26v-6.9c0 0 0-2.08-2.48-2.08 -2.55 0-2.8 2.08-2.8 2.08v6.9h-2.37v-6.93c0 0-0.22-2.19-2.37-2.19 -2.8 0-2.84 2.23-2.84 2.23L-75.79 364.48z"/>
		<path d="M-3.64 353.13c-1.22-0.04-3.27 1.62-3.27 1.62v-1.33h-2.33v11.06h2.37l-0.04-6.93c0 0 0.04-2.23 2.84-2.23 0.5 0 0.93 0.11 1.22 0.32l0 0 0.79-2.15C-2.52 353.28-3.06 353.13-3.64 353.13"/>
		<path d="M29.77 353.13c-1.22-0.04-3.27 1.62-3.27 1.62v-1.33h-2.33v11.06h2.37l-0.04-6.93c0 0 0.04-2.23 2.84-2.23 0.5 0 0.93 0.11 1.22 0.32l0 0 0.79-2.15C30.92 353.28 30.38 353.13 29.77 353.13"/>
		<path d="M-52.59 355.36c1.9 0 3.45 1.65 3.45 3.7 0 2.05-1.54 3.7-3.45 3.7s-3.45-1.65-3.45-3.7C-56.04 357.01-54.49 355.36-52.59 355.36M-53.06 353.1c-3.56 0-5.42 3.2-5.42 5.85 0 2.73 2.16 5.89 5.53 5.89 1.98 0 3.63-1.47 3.63-1.47v1.11h2.33v-11.1h-2.33v1.4C-49.36 354.82-50.87 353.1-53.06 353.1L-53.06 353.1z"/>
		<path d="M15.51 355.36c1.9 0 3.45 1.65 3.45 3.7 0 2.05-1.54 3.7-3.45 3.7 -1.9 0-3.45-1.65-3.45-3.7C12.06 357.01 13.6 355.36 15.51 355.36M15.04 353.1c-3.56 0-5.42 3.2-5.42 5.85 0 2.73 2.16 5.89 5.53 5.89 1.98 0 3.63-1.47 3.63-1.47v1.11h2.33v-11.1h-2.33v1.4C18.74 354.82 17.23 353.1 15.04 353.1"/>
		<path d="M37.92 355.36c1.9 0 3.45 1.65 3.45 3.7 0 2.05-1.54 3.7-3.45 3.7 -1.9 0-3.45-1.65-3.45-3.7C34.47 357.01 36.02 355.36 37.92 355.36M37.49 353.1c-3.56 0-5.42 3.2-5.42 5.85 0 2.73 2.16 5.89 5.53 5.89 1.98 0 3.63-1.47 3.63-1.47v1.11h2.33v-15.44h-2.33v5.78C41.19 354.82 39.64 353.1 37.49 353.1"/>
		<path d="M-39.88 364.88c-2.41 0-4.67-1.47-4.67-1.47l1.01-1.58c0 0 2.12 0.97 3.63 0.97 0.97 0 2.62-0.32 2.66-1.29 0.04-1.04-2.77-1.36-2.77-1.36s-4.17-0.07-4.17-3.48c0-2.15 2.08-3.52 4.74-3.52 1.54 0 4.42 1.36 4.42 1.36l-1.15 1.83c0 0-2.23-0.9-3.41-0.93 -1.01-0.04-2.19 0.43-2.19 1.29 0 2.33 6.93-0.18 6.93 4.56C-34.81 364.3-37.65 364.88-39.88 364.88"/>
		<path d="M-30.97 350.22v3.23h-2.05v2.33h2.05v5.57c0 0-0.18 3.77 3.88 3.77 1.11 0 3.3-0.83 3.3-0.83l-0.93-2.41c0 0-0.86 0.75-1.87 0.72 -1.87-0.04-1.83-1.26-1.83-1.26v-5.57h3.84v-2.33h-3.84v-3.23C-28.38 350.22-30.97 350.22-30.97 350.22z"/>
		<path d="M-17.25 355.39c0.11 0 0.18 0 0.29 0 2.84 0 2.84 2.69 2.84 2.69h-5.75C-19.91 358.09-20.05 355.57-17.25 355.39M-16.89 353.24c-3.81 0-5.71 3.12-5.71 5.85 0 2.8 1.72 5.96 5.93 5.96 1.8 0 4.31-1.58 4.31-1.58l-1.08-1.87c0 0-1.72 1.22-3.23 1.22 -3.02 0-3.23-2.95-3.23-2.95h8.08C-11.79 359.85-11.21 353.24-16.89 353.24"/>
		<path d="M7.17 361.54l1.08 2.15c0 0-1.72 1.11-3.66 1.11 -3.99 0-6.21-3.02-6.21-5.85 0-4.49 3.52-5.78 5.93-5.78 2.16 0 4.06 1.26 4.06 1.26l-1.22 2.15c0 0-0.75-1.15-2.91-1.15s-3.3 1.87-3.3 3.63c0 1.98 1.33 3.66 3.34 3.66C5.85 362.72 7.17 361.54 7.17 361.54"/>
		<path d="M48.48 363.76c0.07 0 0.11 0 0.14 0.04 0.04 0.04 0.04 0.07 0.04 0.11s0 0.07-0.04 0.11c-0.04 0.04-0.07 0.04-0.14 0.04h-0.25v-0.29H48.48zM48.48 363.55h-0.47v1.04h0.22v-0.4h0.11l0.32 0.4h0.25l-0.32-0.4c0.11 0 0.18-0.04 0.25-0.11s0.07-0.14 0.07-0.22c0-0.11-0.04-0.18-0.11-0.25C48.73 363.58 48.62 363.55 48.48 363.55M48.41 364.95c-0.25 0-0.47-0.11-0.61-0.25 -0.18-0.18-0.25-0.36-0.25-0.61 0-0.25 0.11-0.47 0.25-0.61 0.18-0.18 0.36-0.25 0.61-0.25 0.25 0 0.43 0.11 0.61 0.25 0.18 0.18 0.25 0.36 0.25 0.61 0 0.25-0.07 0.47-0.25 0.61C48.87 364.88 48.66 364.95 48.41 364.95M48.41 362.97c-0.32 0-0.61 0.11-0.83 0.32 -0.22 0.22-0.32 0.47-0.32 0.79 0 0.32 0.11 0.57 0.32 0.79 0.22 0.22 0.47 0.32 0.83 0.32 0.32 0 0.57-0.11 0.79-0.32 0.22-0.22 0.32-0.47 0.32-0.79 0-0.32-0.11-0.57-0.32-0.79C49.02 363.08 48.73 362.97 48.41 362.97"/>
		<path fill="none" stroke="#ABABAB" stroke-width="2" stroke-miterlimit="10" d="M-102 251.1c-7.5 0-13.5 6-13.5 13.5v96c0 7.5 6 13.5 13.5 13.5H67c7.5 0 13.5-6.1 13.5-13.5v-96c0-7.5-6-13.5-13.5-13.5H-102z"/>
	</symbol>
	<symbol class="i" id="amex" width="100%" height="100%" viewBox="0 0 198 198">
		<path fill="#415FAB" d="M14.5 37.5C7 37.5 1 43.5 1 51v96c0 7.5 6 13.5 13.5 13.5h169c7.5 0 13.5-6.1 13.5-13.5V51c0-7.5-6-13.5-13.5-13.5H14.5z"/>
		<path fill="#fff" d="M2.2 95.3h9.4l2.1-5.1h4.7l2.1 5.1h18.4v-3.9l1.6 3.9h9.6l1.6-3.9v3.9h45.8l0-8.3h0.9c0.6 0 0.8 0.1 0.8 1.1v7.2h23.7v-1.9c1.9 1 4.9 1.9 8.8 1.9h10l2.1-5.1h4.7l2.1 5.1h19.2v-4.8l2.9 4.8h15.4V63.4h-15.2v3.8l-2.1-3.8H155v3.8l-2-3.8H132c-3.5 0-6.6 0.5-9.1 1.9v-1.9h-14.6v1.9c-1.6-1.4-3.8-1.9-6.2-1.9H48.9l-3.6 8.2l-3.7-8.2H24.9v3.8l-1.8-3.8H8.8L2.2 78.6L2.2 95.3L2.2 95.3z M61.2 90.7h-5.6l0-17.9l-7.9 17.9h-4.8l-8-17.9v17.9H23.8l-2.1-5.1H10.3l-2.1 5.1H2.2L12 67.9h8.1l9.3 21.6V67.9h8.9l7.2 15.5l6.6-15.5h9.1L61.2 90.7L61.2 90.7L61.2 90.7z M19.8 80.9L16 71.8l-3.7 9.1H19.8z M83.6 90.7H65.3V67.9h18.3v4.8H70.8v4.1h12.5v4.7H70.8V86h12.8L83.6 90.7L83.6 90.7z M109.4 74c0 3.6-2.4 5.5-3.9 6.1c1.2 0.5 2.2 1.3 2.7 1.9c0.8 1.1 0.9 2.1 0.9 4.2v4.5h-5.5l0-2.9c0-1.4 0.1-3.3-0.9-4.4c-0.8-0.8-2-1-4-1h-5.9v8.3h-5.5V67.9H100c2.8 0 4.9 0.1 6.6 1.1C108.3 70 109.4 71.5 109.4 74L109.4 74z M102.4 77.4c-0.8 0.5-1.6 0.5-2.7 0.5h-6.7v-5.1h6.7c1 0 2 0 2.6 0.4c0.7 0.3 1.1 1 1.1 2C103.6 76.2 103.2 77 102.4 77.4L102.4 77.4z M118.2 90.7h-5.6V67.9h5.6L118.2 90.7L118.2 90.7z M183 90.7h-7.8l-10.4-17.1v17.1h-11.2l-2.1-5.1h-11.4l-2.1 5.1h-6.4c-2.7 0-6-0.6-7.9-2.5c-1.9-1.9-2.9-4.6-2.9-8.7c0-3.4 0.6-6.5 3-8.9c1.8-1.8 4.5-2.7 8.3-2.7h5.3v4.9h-5.2c-2 0-3.1 0.3-4.2 1.4c-0.9 1-1.6 2.8-1.6 5.2c0 2.4 0.5 4.2 1.5 5.4c0.8 0.9 2.4 1.2 3.8 1.2h2.5l7.7-17.9h8.2l9.3 21.6V67.9h8.3l9.6 15.9V67.9h5.6L183 90.7L183 90.7z M149.7 80.9l-3.8-9.1l-3.8 9.1L149.7 80.9L149.7 80.9z M197 127.1c-1.3 1.9-3.9 2.9-7.4 2.9H179v-4.9h10.5c1 0 1.8-0.1 2.2-0.6c0.4-0.4 0.6-0.9 0.6-1.5c0-0.7-0.3-1.2-0.7-1.5c-0.4-0.3-1-0.5-1.9-0.5c-5.1-0.2-11.6 0.2-11.6-7.1c0-3.3 2.1-6.8 7.9-6.8H197v-4.5h-10.1c-3.1 0-5.3 0.7-6.9 1.9v-1.9h-15c-2.4 0-5.2 0.6-6.5 1.9v-1.9h-26.8v1.9c-2.1-1.5-5.7-1.9-7.4-1.9h-17.7v1.9c-1.7-1.6-5.4-1.9-7.7-1.9H79.2l-4.5 4.9l-4.2-4.9H40.9v31.8h29l4.7-4.9l4.4 5l17.9 0V127h1.8c2.4 0 5.2-0.1 7.6-1.1v8.6h14.7v-8.3h0.7c0.9 0 1 0 1 0.9v7.4h44.7c2.8 0 5.8-0.7 7.5-2v2h14.2c3 0 5.8-0.4 8-1.5L197 127.1L197 127.1z M108.3 114.9c0 6.3-4.7 7.6-9.5 7.6h-6.8v7.7H81.3l-6.7-7.6l-7 7.6H45.8v-22.8h22l6.7 7.5l7-7.5H99C103.4 107.3 108.3 108.5 108.3 114.9z M64.7 125.4H51.3v-4.5h12v-4.7h-12V112H65l6 6.6L64.7 125.4L64.7 125.4z M86.4 128l-8.4-9.3l8.4-9V128L86.4 128z M98.9 117.8h-7.1V112h7.1c2 0 3.3 0.8 3.3 2.8C102.3 116.8 101 117.8 98.9 117.8L98.9 117.8z M135.9 107.3h18.3v4.7h-12.8v4.1h12.5v4.7h-12.5v4.5l12.8 0v4.7h-18.3V107.3L135.9 107.3z M128.9 119.6c1.2 0.4 2.2 1.3 2.7 1.9c0.8 1.1 0.9 2.2 0.9 4.2v4.5H127v-2.9c0-1.4 0.1-3.4-0.9-4.5c-0.8-0.8-2-1-4-1h-5.9v8.3h-5.5v-22.8h12.6c2.8 0 4.8 0.1 6.6 1.1c1.7 1 2.8 2.5 2.8 5.1C132.8 117.1 130.4 119 128.9 119.6L128.9 119.6z M125.8 116.7c-0.7 0.4-1.6 0.5-2.7 0.5h-6.7V112h6.7c1 0 2 0 2.6 0.4c0.7 0.4 1.1 1.1 1.1 2.1C126.9 115.5 126.5 116.2 125.8 116.7L125.8 116.7z M175.3 118.1c1.1 1.1 1.6 2.5 1.6 4.8c0 4.9-3.1 7.2-8.6 7.2h-10.7v-4.9h10.6c1 0 1.8-0.1 2.2-0.6c0.4-0.4 0.6-0.9 0.6-1.5c0-0.7-0.3-1.2-0.7-1.5c-0.4-0.3-1-0.5-2-0.5c-5.1-0.2-11.5 0.2-11.5-7.1c0-3.3 2.1-6.8 7.8-6.8h11v4.9h-10c-1 0-1.6 0-2.2 0.4c-0.6 0.4-0.8 0.9-0.8 1.6c0 0.9 0.5 1.4 1.2 1.7c0.6 0.2 1.2 0.3 2.1 0.3l2.9 0.1C172 116.4 174 116.9 175.3 118.1L175.3 118.1z M197 112h-10c-1 0-1.7 0-2.2 0.4c-0.6 0.4-0.8 0.9-0.8 1.6c0 0.9 0.5 1.4 1.2 1.7c0.6 0.2 1.2 0.3 2.1 0.3l3 0.1c3 0.1 5 0.6 6.2 1.8c0.2 0.2 0.4 0.4 0.5 0.6L197 112L197 112z"/>
		<path fill="none" stroke="#ABABAB" stroke-width="2" stroke-miterlimit="10" d="M14.5 37.5C7 37.5 1 43.5 1 51v96c0 7.5 6 13.5 13.5 13.5h169c7.5 0 13.5-6.1 13.5-13.5V51c0-7.5-6-13.5-13.5-13.5H14.5z"/>
	</symbol>
	<symbol class="i" id="visa" width="100%" height="100%" viewBox="0 0 198 198">
		<path fill="#fff" d="M14.5 37.5C7 37.5 1 43.5 1 51v96c0 7.5 6 13.5 13.5 13.5h169c7.5 0 13.5-6.1 13.5-13.5V51c0-7.5-6-13.5-13.5-13.5H14.5z"/>
		<path fill="#194993" d="M69.5 124.6l8.7-51.2h13.9l-8.7 51.2H69.5z M133.8 74.5c-2.8-1-7.1-2.1-12.5-2.1c-13.8 0-23.5 6.9-23.6 16.9c-0.1 7.4 6.9 11.5 12.2 13.9c5.4 2.5 7.3 4.1 7.2 6.3c0 3.4-4.3 5-8.3 5c-5.6 0-8.5-0.8-13.1-2.7l-1.8-0.8l-2 11.5c3.3 1.4 9.3 2.7 15.5 2.7c14.7 0 24.2-6.9 24.3-17.5c0.1-5.8-3.7-10.2-11.7-13.9c-4.9-2.4-7.9-3.9-7.8-6.3c0-2.1 2.5-4.4 8-4.4c4.6-0.1 7.9 0.9 10.4 2l1.2 0.6L133.8 74.5 M169.7 73.4h-10.8c-3.3 0-5.8 0.9-7.3 4.2l-20.7 46.9h14.6c0 0 2.4-6.3 2.9-7.7c1.6 0 15.8 0 17.9 0c0.4 1.8 1.7 7.7 1.7 7.7H181L169.7 73.4L169.7 73.4z M152.6 106.4c1.2-2.9 5.6-14.3 5.6-14.3c-0.1 0.1 1.1-3 1.8-4.9l0.9 4.4c0 0 2.7 12.2 3.2 14.8L152.6 106.4L152.6 106.4z M57.7 73.4L44 108.3l-1.5-7.1C40 93 32.1 84.2 23.2 79.7l12.5 44.7l14.8 0l22-51.1L57.7 73.4"/>
		<path fill="#F1AE1D" d="M35.5 73.4H13l-0.2 1.1c17.5 4.2 29.1 14.5 33.9 26.8l-4.9-23.5C40.9 74.5 38.5 73.5 35.5 73.4"/>
		<path fill="none" stroke="#ABABAB" stroke-width="2" stroke-miterlimit="10" d="M14.5 37.5C7 37.5 1 43.5 1 51v96c0 7.5 6 13.5 13.5 13.5h169c7.5 0 13.5-6.1 13.5-13.5V51c0-7.5-6-13.5-13.5-13.5H14.5z"/>
	</symbol>
	<symbol class="i" id="discover" width="100%" height="100%" viewBox="0 0 198 198">
		<path fill="#fff" d="M14.5 37.5C7 37.5 1 43.5 1 51v96c0 7.5 6 13.5 13.5 13.5h169c7.5 0 13.5-6.1 13.5-13.5V51c0-7.5-6-13.5-13.5-13.5H14.5z"/>
		<path fill="#F37422" d="M105.2 77.1c-7.6 0-13.8 5.8-13.8 12.9v0c0 7.2 6.2 13 13.8 13S119 97.2 119 90v0C119 82.8 112.8 77.1 105.2 77.1z M113.8 90c0 4.4-3.8 8.1-8.6 8.1c-4.7 0-8.6-3.6-8.6-8.1v0c0-4.4 3.8-8 8.6-8h0C109.9 82 113.8 85.6 113.8 90L113.8 90z"/>
		<path fill="#4E4E4E" d="M83.6 77.2c2.2 0 4 0.4 6.2 1.5v5.6c-2.1-1.9-3.9-2.7-6.3-2.7c-4.7 0-8.5 3.7-8.5 8.4c0 4.9 3.6 8.4 8.7 8.4c2.3 0 4.1-0.8 6.1-2.7v5.6c-2.3 1-4.2 1.4-6.3 1.4c-7.7 0-13.7-5.6-13.7-12.7C69.8 82.9 75.9 77.2 83.6 77.2L83.6 77.2z M59.7 77.4c2.8 0 5.4 0.9 7.6 2.7l-2.6 3.3c-1.3-1.4-2.6-2-4.1-2c-2.2 0-3.8 1.2-3.8 2.7c0 1.3 0.9 2 3.9 3.1c5.7 2 7.4 3.7 7.4 7.6c0 4.7-3.7 8-8.9 8c-3.8 0-6.6-1.4-9-4.6l3.3-3c1.2 2.1 3.1 3.2 5.5 3.2c2.3 0 3.9-1.5 3.9-3.4c0-1-0.5-1.9-1.5-2.5C61 92.1 60 91.7 58 91c-4.7-1.6-6.4-3.3-6.4-6.7C51.7 80.4 55.2 77.4 59.7 77.4L59.7 77.4z M117.4 77.8h5.5l6.9 16.4l7-16.4h5.5l-11.2 25h-2.7L117.4 77.8L117.4 77.8z M19.8 77.8h7.4c8.2 0 13.9 5 13.9 12.2c0 3.6-1.7 7-4.7 9.3c-2.5 1.9-5.3 2.8-9.2 2.8h-7.4L19.8 77.8L19.8 77.8z M43.4 77.8h5v24.4h-5V77.8z M144.5 77.8h14.3V82h-9.3v5.4h8.9v4.1h-8.9v6.6h9.3v4.1h-14.3L144.5 77.8L144.5 77.8z M162.2 77.8h7.5c5.8 0 9.2 2.6 9.2 7.2c0 3.7-2.1 6.2-5.9 6.9l8.1 10.3h-6.2l-7-9.8h-0.7v9.8h-5V77.8z M167.2 81.7V89h1.5c3.2 0 4.9-1.3 4.9-3.8c0-2.4-1.7-3.6-4.9-3.6L167.2 81.7L167.2 81.7z M24.8 82v16.1h1.4c3.3 0 5.3-0.6 6.9-1.9c1.7-1.5 2.8-3.8 2.8-6.1c0-2.3-1-4.6-2.8-6.1c-1.7-1.4-3.6-2-6.9-2L24.8 82L24.8 82z"/>
		<path fill="#F37321" d="M197 108.3c-6.4 4.5-58.7 36.7-141.6 52.2h128.1c7.5 0 13.5-6.1 13.5-13.5V108.3z"/>
		<path fill="none" stroke="#ABABAB" stroke-width="2" stroke-miterlimit="10" d="M14.5 37.5C7 37.5 1 43.5 1 51v96c0 7.5 6 13.5 13.5 13.5h169c7.5 0 13.5-6.1 13.5-13.5V51c0-7.5-6-13.5-13.5-13.5H14.5z"/>
	</symbol>
	<symbol class="i" id="amazon" width="100%" height="100%" viewBox="0 0 198 198">
		<path d="M14.5 37.5C7 37.5 1 43.5 1 51v96c0 7.5 6 13.5 13.5 13.5h169c7.5 0 13.5-6.1 13.5-13.5V51c0-7.5-6-13.5-13.5-13.5H14.5z"/>
		<g fill="#F8991D">
			<path d="M117.2 93.9c1.4-1.1 0.2-2.6-1.2-2c-9.6 4.1-20.1 6.1-29.6 6.1c-14.1 0-27.7-3.9-38.8-10.3c-1-0.6-1.7 0.4-0.9 1.2C57 98 70.5 103.6 85.5 103.6C96.2 103.6 108.6 100.2 117.2 93.9L117.2 93.9z"/>
			<path d="M110.6 88.3c-0.8 0.5-0.6 1.3 0.2 1.2c2.8-0.3 8.9-1.1 10 0.3c1.1 1.4-1.2 7.2-2.3 9.8c-0.3 0.8 0.4 1.1 1.1 0.5c4.6-3.8 5.8-11.9 4.9-13.1C123.5 85.8 115.5 84.9 110.6 88.3z"/>
		</g>
		<g fill="#F8991D">
			<path d="M16.3 115.2c2.5-0.6 5.8-0.9 9.2 0c5.1 1.3 7 4.5 7 11.2c0 7.9-4 11.7-9.1 11.7c-2.6 0-3.7 0-5.7-0.5v2.6l0 8.4h-3.4l0.1-25.3c0-2.8 0-5.5-0.1-7.6 M17.6 134.1c1.1 0.7 2.9 1 5.1 0.9c4.2-0.4 6.6-3.4 6.6-8.4c0-4.4-2.3-8.6-6.5-8.9c-2-0.1-4.2 0.3-4.8 0.4c-0.2 0-0.5 0.5-0.5 0.7C17.4 120.9 17.5 133.6 17.6 134.1z"/>
			<path d="M49.1 137.5l-0.2-1.9l0 0c-1.2 1.7-3.8 2.4-6.9 2.4c-4.4 0-7-3.3-7-6.4c0-7 5-8 13.4-8v-0.5c0.1-2.9-0.1-5.9-4.6-5.9c-2 0-4.8 1-6.3 2l-1.4-2.5c1.8-1.2 5.3-2.5 8-2.5c6.7 0 8.2 5.5 8.2 9.9v8.2c0 1.9 0.1 3.7 0.4 5.2H49.1z M48.5 126.6c-6.8 0-10.1 0.5-10.1 4.8c0 2.6 2.6 3.7 4.6 3.7c2.1 0 4.6-1.8 5.3-3.7c0.1-0.4 0.2-0.9 0.2-1.3V126.6z"/>
			<path d="M56.9 114.6l5.8 13.7c0.5 1.4 1.2 2.8 1.5 4.1l-0.2 0.6c0.4-1.3 0.9-3 1.4-4.6l4.7-13.9H74l-5.8 17c-2.1 5.4-3.3 12.3-7.2 15.6c-2 1.7-7.4 1.6-8.8 0.9l0.5-3.3c2.8 0.8 5.1 1.1 7.3-1.1c1-1 1.8-2.8 2.2-5.1c0.2-0.4 0.1-1.6 0.1-1.8c0-0.2-0.3-1.5-0.5-2L53 114.6H56.9z"/>
			<path d="M76.2 121.6c0-2.3 0-5-0.2-6.8l3.4-0.2l0.1 2.1l0.1 0.6c1.2-2.1 3.5-3.3 7.2-3.3c3 0 4.5 1.2 5.7 3.5l0.2 0c1.2-1 1.7-1.2 2.6-1.9c1.3-1 4.2-1.6 6.5-1.2c2.9 0.4 6.1 2.8 6.1 10.4v12.8h-4l0-12.5c0.1-4.5 0.2-7.9-4.5-7.3c-2.2 0.3-4 0.9-5.3 4.3c-0.2 0.5-0.3 1.3-0.3 2v13.5h-3.9v-13.1c0.3-5.6-1.6-6.7-4.3-6.6c-2.5 0.1-5.6 2-5.5 4.3c-0.1 0.9-0.1 1.5-0.1 2.2v13.2h-3.9V121.6z"/>
			<path d="M114.7 126.6c0.1 5.4 3.5 8.3 7.4 8.3c2.8 0 3.7-0.8 5.2-1.4l1 2.8c-1.4 0.6-3.3 1.7-6.8 1.7c-6.7 0-10.7-4.4-10.7-11c0-8 3.7-12.7 10.1-12.7c6.4 0 7.6 7.5 7.6 10.7c0 0.8 0 1.2-0.1 1.7H114.7z M125.1 123.7c0-2.5-0.9-6.3-4.9-6.3c-4 0-5.2 3.5-5.5 6.3H125.1z"/>
			<path d="M132.6 122.2c0-2.3 0.1-5.6 0-7.4h3.1l0.3 2l0 0c1.8-1.7 3.9-2.8 7.5-2.8c4.5 0 6.9 2.6 6.9 10.8v13h-4l0.2-12.7c0-3.5-0.1-7.3-4.6-7.1c-2.6 0.2-5 2.2-5.7 4.5c-0.2 0.5-0.2 1.4-0.2 2.1l-0.1 13.2h-3.6V122.2z"/>
			<path d="M160.1 108.9v5.8h6.1l-0.8 3h-5.3v12.8c0 2.7 0.8 4.2 3 4.2c1 0 1.9-0.9 2.4-1l1.1 2.4c-0.8 0.3-2.3 1.8-4.6 1.8c-1.9 0-3.3-0.6-4.3-1.7c-1.1-1.2-1.5-3.1-1.5-5.7v-12.9h-3.4v-3h3.4v-4.8L160.1 108.9z"/>
			<path d="M170.1 133.4c1.2 0.8 3.6 1.6 5.6 1.6c2.9 0 4.2-1.4 4.2-3.2c0-1.9-1.1-2.9-4.1-4c-3.9-1.4-6.4-4.1-6.4-6.8	c0-3.5 2-7.1 8.1-6.7c2.2 0.1 4.2 0.6 5.4 1.4l-1 2.9c-0.9-0.5-2.4-1.3-4.5-1.3c-2.3 0-4.4 0.6-4.4 3.1c-0.1 2.5 2.1 3.5 4.9 4.5	c3.8 1.4 5.7 3.3 5.7 6.6c0 3.8-3 6.5-8.2 6.5c-2.4 0-5.4-1.1-7-2L170.1 133.4z"/>
		</g>
		<path fill="#fff" d="M47.2 80.6c0.3 0.4 0.4 0.9 0 1.2c-0.9 0.8-2.6 2.2-3.5 3l0 0c-0.3 0.3-0.7 0.3-1.1 0.1c-1.5-1.3-1.8-1.8-2.6-3c-2.5 2.6-4.3 3.3-7.5 3.3c-3.8 0-6.8-2.4-6.8-7.1c0-3.7 2-6.2 4.9-7.5c2.5-1.1 5.9-1.3 8.6-1.6v-0.6c0-1.1 0.1-2.4-0.6-3.3c-0.6-0.8-1.6-1.2-2.6-1.2c-1.7 0-3.3 0.9-3.7 2.7c-0.1 0.4-0.4 0.8-0.8 0.8L27.1 67c-0.4-0.1-0.8-0.4-0.7-1c1-5.4 5.9-7 10.2-7c2.2 0 5.1 0.6 6.9 2.3c2.2 2.1 2 4.8 2 7.9v7.1C45.5 78.5 46.4 79.4 47.2 80.6L47.2 80.6z M39.1 72.7c-3.3 0-6.8 0.7-6.8 4.6c0 2 1 3.3 2.8 3.3c1.3 0 2.4-0.8 3.2-2.1c0.9-1.6 0.9-3.1 0.9-4.8V72.7z M50.8 84.1c0 0.4 0.4 0.7 0.8 0.8h4.6c0.5 0 0.9-0.4 0.9-0.8V71.6c0-2.7-0.1-6.5 3.1-6.5c3.2 0 2.8 3.8 2.8 6.5V84c0 0.5 0.4 0.8 0.8 0.8h4.6c0.5 0 0.9-0.4 0.9-0.8V71.6c0-1.3 0-3.3 0.4-4.5c0.5-1.2 1.6-1.9 2.7-1.9c1.3 0 2.3 0.4 2.7 2c0.2 0.9 0.1 3.4 0.1 4.4V84c0 0.5 0.4 0.8 0.8 0.8h4.6c0.5 0 0.9-0.4 0.9-0.8l0-14.8c0-2.5 0.3-5.4-1.1-7.4c-1.3-1.8-3.4-2.6-5.3-2.6c-2.7 0-5.2 1.4-6.3 4.3c-1.3-3-3.1-4.3-5.9-4.3c-2.8 0-4.9 1.4-6 4.3h-0.1v-3.1c0-0.4-0.4-0.8-0.8-0.8h-4.3c-0.5 0-0.9 0.4-0.9 0.8L50.8 84.1L50.8 84.1z M128.2 79.8c-0.1-0.5-0.2-1-0.8-1.3c-2.6-1.5-5.7-1.9-8.6-1.8l7.8-11.1c0.7-1 1.1-1.6 1.1-2.1v-2.9c0-0.5-0.4-0.8-0.9-0.8h-15c-0.5 0-0.8 0.3-0.8 0.8v3.4c0 0.5 0.4 0.8 0.9 0.8h7.8l-9 12.9c-0.5 0.8-0.6 1.8-0.6 2.3v3.4c0 0.5 0.6 1.1 1.1 0.8c5.1-2.7 11.2-2.4 15.9 0c0.6 0.3 1.1-0.3 1.1-0.8V79.8L128.2 79.8z M99 69L99 69l0-0.6c0-1.1 0.1-2.4-0.6-3.3c-0.5-0.8-1.6-1.2-2.6-1.2c-1.7 0-3.3 0.9-3.7 2.7c-0.1 0.4-0.4 0.8-0.8 0.8L87 67c-0.4-0.1-0.8-0.4-0.7-1c1-5.4 5.9-7 10.2-7c2.2 0 5.1 0.6 6.9 2.3c2.2 2.1 2 4.8 2 7.9v7.1c0 2.1 0.9 3.1 1.7 4.2c0.3 0.4 0.4 0.9 0 1.2c-0.9 0.8-2.6 2.2-3.5 3l0 0c-0.3 0.3-0.7 0.3-1.1 0.1c-1.5-1.3-1.8-1.8-2.6-3c-2.5 2.6-4.3 3.3-7.5 3.3c-3.8 0-6.8-2.4-6.8-7.1c0-3.7 2-6.2 4.9-7.5C92.9 69.5 96.3 69.3 99 69L99 69z M99 73.7v-1c-3.3 0-6.8 0.7-6.8 4.6c0 2 1 3.3 2.8 3.3c1.3 0 2.4-0.8 3.1-2.1C99 76.9 99 75.4 99 73.7L99 73.7z M140.6 59.3c6.8 0 10.5 5.8 10.5 13.2c0 7.2-4.1 12.8-10.5 12.8c-6.7 0-10.3-5.8-10.3-13.1C130.3 65 134 59.3 140.6 59.3L140.6 59.3z M140.6 80.5c3.5 0 3.7-4.9 3.7-7.9c0-2-0.1-4.3-0.7-6.2c-0.5-1.6-1.5-2.3-3-2.3c-3.4 0-3.6 4.6-3.6 7.4C137.1 74.4 137 80.5 140.6 80.5L140.6 80.5z M172.1 62.1c-1.3-2-3.3-2.8-5.3-2.8c-3.2 0-5 1.5-6.2 4.7h-0.1v-3.6c-0.1-0.4-0.4-0.6-0.8-0.7h-4.2c-0.5 0-0.8 0.3-0.9 0.8l0 23.5c0 0.5 0.4 0.8 0.8 0.9h4.5c0.5 0 0.9-0.4 0.9-0.9V71.4c0-1.6 0.1-3 0.7-4.4c0.5-1.1 1.5-1.9 2.6-1.9c3.1 0 2.8 3.8 2.8 6.3v12.7c0 0.4 0.4 0.7 0.8 0.7h4.6c0.5 0 0.8-0.3 0.9-0.7V69.4C173.3 67.1 173.3 63.9 172.1 62.1L172.1 62.1z"/>
		<path fill="none" stroke="#ABABAB" stroke-width="2" stroke-miterlimit="10" d="M14.5 37.5C7 37.5 1 43.5 1 51v96c0 7.5 6 13.5 13.5 13.5h169c7.5 0 13.5-6.1 13.5-13.5V51c0-7.5-6-13.5-13.5-13.5H14.5z"/>
	</symbol>
	<symbol class="i" id="cvvFront" width="100%" height="100%" viewBox="0 0 16 16">
		<path fill="#405EAB" d="M0.9 2.8H15c0.5 0 0.8 0.4 0.8 0.8v8.2c0 0.5-0.4 0.8-0.8 0.8H0.9c-0.5 0-0.8-0.4-0.8-0.8V3.6 C0.1 3.1 0.5 2.8 0.9 2.8z"/>
		<path fill="none" stroke="#ABABAB" stroke-width="0.25" stroke-miterlimit="10" d="M1.2 2.8c-0.6 0-1.1 0.5-1.1 1.1v7.7c0 0.6 0.5 1.1 1.1 1.1h13.6c0.6 0 1.1-0.5 1.1-1.1V3.9 c0-0.6-0.5-1.1-1.1-1.1H1.2z"/>
		<path fill="#fff" d="M14.1 11.3H5V6.6h9V11.3z M13.6 7.1H5.5v3.8h8.1V7.1z"/>
		<path fill="#fff" d="M6.8 8.5L6.8 8.5L6.4 8.7L6.4 8.3l0.5-0.2h0.4v2H6.8V8.5z"/>
		<path fill="#fff" d="M7.8 10.1V9.8L8 9.6c0.4-0.4 0.6-0.6 0.7-0.8c0-0.2-0.1-0.3-0.3-0.3C8.2 8.4 8 8.5 7.9 8.6L7.8 8.3 c0.2-0.1 0.4-0.2 0.7-0.2c0.5 0 0.7 0.3 0.7 0.6c0 0.3-0.2 0.6-0.5 0.9L8.4 9.7v0h0.8v0.4H7.8z"/>
		<path fill="#fff" d="M9.7 9.6c0.1 0 0.3 0.1 0.5 0.1c0.2 0 0.4-0.1 0.4-0.3c0-0.2-0.2-0.3-0.4-0.3H9.9V8.9h0.2 c0.2 0 0.4-0.1 0.4-0.2c0-0.1-0.1-0.2-0.3-0.2c-0.2 0-0.3 0.1-0.4 0.1L9.7 8.2c0.1-0.1 0.4-0.2 0.6-0.2c0.4 0 0.7 0.2 0.7 0.5 c0 0.2-0.1 0.4-0.4 0.5v0c0.2 0 0.4 0.2 0.4 0.5c0 0.4-0.3 0.6-0.8 0.6c-0.3 0-0.5-0.1-0.6-0.1L9.7 9.6z"/>
		<path fill="#fff" d="M12.2 10.1V9.6h-0.9V9.3L12 8.1h0.6v1.2h0.2v0.3h-0.2v0.5H12.2z M12.2 9.3V8.8c0-0.1 0-0.2 0-0.4h0 c-0.1 0.1-0.1 0.2-0.2 0.4l-0.3 0.4v0H12.2z"/>
		<path fill="#fff" d="M4.2 6.3H2.1C2 6.3 1.9 6.1 1.9 6V4.8c0-0.1 0.1-0.3 0.2-0.3h2.1c0.1 0 0.3 0.1 0.3 0.3V6 C4.5 6.1 4.4 6.3 4.2 6.3z"/>
	</symbol>
	<symbol class="i" id="cvvBack" width="100%" height="100%" viewBox="0 0 16 16">
		<path fill="#fff" d="M0.9 2.8H15c0.5 0 0.8 0.4 0.8 0.8v8.2c0 0.5-0.4 0.8-0.8 0.8H0.9c-0.5 0-0.8-0.4-0.8-0.8V3.6 C0.1 3.1 0.5 2.8 0.9 2.8z"/>
		<path fill="#DB1F26" d="M14.1 11.3H6.4V6.6h7.7V11.3z M13.6 7.1H6.8v3.8h6.9V7.1z"/>
		<path fill="#343333" d="M8.3 8.5L8.3 8.5L7.9 8.7L7.8 8.3l0.5-0.2h0.4v2H8.3V8.5z"/>
		<path fill="#343333" d="M9.2 10.1V9.8l0.3-0.2c0.4-0.4 0.6-0.6 0.7-0.8c0-0.2-0.1-0.3-0.3-0.3c-0.2 0-0.3 0.1-0.4 0.2L9.2 8.3 c0.2-0.1 0.4-0.2 0.7-0.2c0.5 0 0.7 0.3 0.7 0.6c0 0.3-0.2 0.6-0.5 0.9L9.9 9.7v0h0.8v0.4H9.2z"/>
		<path fill="#343333" d="M11.2 9.6c0.1 0 0.3 0.1 0.5 0.1c0.2 0 0.4-0.1 0.4-0.3c0-0.2-0.2-0.3-0.4-0.3h-0.2V8.9h0.2 	c0.2 0 0.4-0.1 0.4-0.2c0-0.1-0.1-0.2-0.3-0.2c-0.2 0-0.3 0.1-0.4 0.1l-0.1-0.3c0.1-0.1 0.4-0.2 0.6-0.2c0.4 0 0.7 0.2 0.7 0.5 c0 0.2-0.1 0.4-0.4 0.5v0c0.2 0 0.4 0.2 0.4 0.5c0 0.4-0.3 0.6-0.8 0.6c-0.3 0-0.5-0.1-0.6-0.1L11.2 9.6z"/>
		<rect x="0.1" y="4.5" fill="#122824" width="15.8" height="1.4"/>
		<path fill="none" stroke="#ABABAB" stroke-width="0.25" stroke-miterlimit="10" d="M1.2 2.8c-0.6 0-1.1 0.5-1.1 1.1v7.7c0 0.6 0.5 1.1 1.1 1.1h13.6c0.6 0 1.1-0.5 1.1-1.1V3.9 c0-0.6-0.5-1.1-1.1-1.1H1.2z"/>
	</symbol>
	<symbol class="i" id="mobileNav" width="100%" height="100%" viewBox="0 0 16 16">
		<rect x="0" y="0.3" width="16" height="2.8"/>
		<rect x="0" y="5.7" width="16" height="2.8"/>
		<rect x="0" y="11" width="16" height="2.8"/>
	</symbol>
	<symbol class="i" id="phoneFilled" width="100%" height="100%" viewBox="0 0 70 70">
		<path class="t" d="M35.271,55.102 C34.584,55.102 33.994,54.857 33.505,54.367 C33.015,53.878 32.770,53.289 32.770,52.602 C32.770,51.914 33.015,51.326 33.505,50.836 C33.994,50.347 34.584,50.102 35.271,50.102 C35.959,50.102 36.548,50.347 37.038,50.836 C37.527,51.326 37.773,51.914 37.773,52.602 C37.773,53.289 37.527,53.878 37.038,54.367 C36.548,54.857 35.959,55.102 35.271,55.102 ZM43.979,48.305 C43.780,48.503 43.546,48.602 43.275,48.602 L27.268,48.602 C26.996,48.602 26.762,48.503 26.564,48.305 C26.366,48.107 26.267,47.873 26.267,47.602 L26.267,25.602 C26.267,25.331 26.366,25.097 26.564,24.898 C26.762,24.701 26.996,24.602 27.268,24.602 L43.275,24.602 C43.546,24.602 43.780,24.701 43.979,24.898 C44.177,25.097 44.276,25.331 44.276,25.602 L44.276,47.602 C44.276,47.873 44.177,48.107 43.979,48.305 ZM37.773,21.602 L32.770,21.602 C32.437,21.602 32.270,21.435 32.270,21.102 C32.270,20.769 32.437,20.602 32.770,20.602 L37.773,20.602 C38.106,20.602 38.273,20.769 38.273,21.102 C38.273,21.435 38.106,21.602 37.773,21.602 L37.773,21.602 ZM46.089,17.789 C45.297,16.998 44.359,16.602 43.275,16.602 L27.268,16.602 C26.184,16.602 25.246,16.998 24.454,17.789 C23.661,18.581 23.266,19.519 23.266,20.602 L23.266,52.602 C23.266,53.685 23.661,54.623 24.454,55.414 C25.246,56.206 26.184,56.602 27.268,56.602 L43.275,56.602 C44.359,56.602 45.297,56.206 46.089,55.414 C46.881,54.623 47.277,53.685 47.277,52.602 L47.277,20.602 C47.277,19.519 46.881,18.581 46.089,17.789 Z"/>
	</symbol>
	<symbol class="i" id="wirelessTower" width="100%" height="100%" viewBox="0 0 70 70">
		<circle class="t" cx="35" cy="25.062" r="4"/>
		<path class="stroke1" d="M27.16,32.165c-3.894-3.958-3.843-10.312,0.115-14.206"/>
		<path class="stroke1" d="M22.467,36.051c-6.024-6.123-5.945-15.953,0.178-21.977"/>
		<path class="stroke1" d="M42.84,32.165c3.894-3.958,3.843-10.312-0.115-14.206"/>
		<path class="stroke1" d="M47.533,36.051c6.024-6.123,5.945-15.953-0.178-21.977"/>
		<polyline class="stroke1" points="29.105,43.75 40.924,43.75 43.974,51.238 26.008,51.238 24.054,55.927 35,29.384 45.946,55.927"/>
	</symbol>
	<symbol class="i" id="envelope" width="100%" height="100%" viewBox="0 0 100 100">
		<path class="t" d="M73.707,67.694 C73.509,67.893 73.274,67.991 73.004,67.991 L27.004,67.991 C26.733,67.991 26.499,67.893 26.301,67.694 C26.103,67.497 26.004,67.262 26.004,66.991 L26.004,42.991 C26.670,43.741 27.389,44.429 28.160,45.054 C33.743,49.346 38.181,52.866 41.473,55.616 C42.535,56.512 43.399,57.210 44.066,57.710 C44.733,58.210 45.634,58.715 46.770,59.226 C47.905,59.736 48.973,59.991 49.973,59.991 L50.004,59.991 L50.035,59.991 C51.035,59.991 52.103,59.736 53.238,59.226 C54.374,58.715 55.274,58.210 55.941,57.710 C56.608,57.210 57.473,56.512 58.535,55.616 C61.827,52.866 66.264,49.346 71.848,45.054 C72.618,44.429 73.337,43.741 74.004,42.991 L74.004,66.991 C74.004,67.262 73.905,67.497 73.707,67.694 ZM72.551,38.257 C71.582,39.768 70.535,40.971 69.410,41.866 C65.389,45.033 61.212,48.335 56.879,51.772 C56.754,51.877 56.389,52.184 55.785,52.694 C55.181,53.205 54.702,53.596 54.348,53.866 C53.993,54.137 53.530,54.465 52.957,54.851 C52.384,55.236 51.858,55.522 51.379,55.710 C50.899,55.897 50.452,55.991 50.035,55.991 L50.004,55.991 L49.973,55.991 C49.556,55.991 49.108,55.897 48.629,55.710 C48.149,55.522 47.624,55.236 47.051,54.851 C46.478,54.465 46.014,54.137 45.660,53.866 C45.306,53.596 44.827,53.205 44.223,52.694 C43.618,52.184 43.254,51.877 43.129,51.772 C38.795,48.335 34.618,45.033 30.598,41.866 C27.535,39.450 26.004,36.491 26.004,32.991 C26.004,32.721 26.103,32.486 26.301,32.288 C26.499,32.090 26.733,31.991 27.004,31.991 L73.004,31.991 C73.170,31.991 73.316,32.018 73.441,32.069 C73.566,32.122 73.660,32.200 73.723,32.304 C73.785,32.408 73.842,32.502 73.895,32.585 C73.946,32.669 73.978,32.799 73.988,32.976 C73.999,33.153 74.004,33.288 74.004,33.382 C74.004,33.476 74.004,33.616 74.004,33.804 C74.004,33.991 74.004,34.106 74.004,34.147 C74.004,35.377 73.520,36.747 72.551,38.257 ZM76.535,29.460 C75.556,28.481 74.379,27.991 73.004,27.991 L27.004,27.991 C25.629,27.991 24.452,28.481 23.473,29.460 C22.493,30.439 22.004,31.616 22.004,32.991 L22.004,66.991 C22.004,68.366 22.493,69.543 23.473,70.522 C24.452,71.501 25.629,71.991 27.004,71.991 L73.004,71.991 C74.379,71.991 75.556,71.501 76.535,70.522 C77.514,69.543 78.004,68.366 78.004,66.991 L78.004,32.991 C78.004,31.616 77.514,30.439 76.535,29.460 Z"/>
	</symbol>
	<symbol class="i" id="subscribe" width="100%" height="100%" viewBox="0 0 16 16">
		<path d="M13.3 13.5c0 0.3-0.3 0.6-0.6 0.6H0.6c-0.3 0-0.6-0.3-0.6-0.6V9.4c0-0.3 0.1-0.8 0.3-1.1l2-4.8C2.3 3.3 2.8 3 3 3h7.3 c0.3 0 0.7 0.3 0.8 0.5l2 4.8c0.1 0.3 0.3 0.8 0.3 1.1L13.3 13.5L13.3 13.5z M11.6 9.1C11.6 9 11.6 9 11.6 9.1L9.7 4.7H3.6L1.8 9 c0 0.1 0 0.1-0.1 0.1h2.8l0.8 1.7h2.8l0.8-1.7H11.6z"/>
	</symbol>
	<symbol class="i" id="cellphone" width="100%" height="100%" viewBox="0 0 16 16">
		<path d="M12.9,1.6v12.8c0,0.4-0.2,0.8-0.5,1.1c-0.3,0.3-0.7,0.5-1.1,0.5H4.9c-0.4,0-0.8-0.2-1.1-0.5 c-0.3-0.3-0.5-0.7-0.5-1.1V1.6c0-0.4,0.2-0.8,0.5-1.1S4.4,0,4.9,0h6.4c0.4,0,0.8,0.2,1.1,0.5C12.7,0.8,12.9,1.2,12.9,1.6 M11.7,12.4V3.6c0-0.1,0-0.2-0.1-0.3c-0.1-0.1-0.2-0.1-0.3-0.1H4.9c-0.1,0-0.2,0-0.3,0.1C4.5,3.4,4.5,3.5,4.5,3.6v8.8 c0,0.1,0,0.2,0.1,0.3c0.1,0.1,0.2,0.1,0.3,0.1h6.4c0.1,0,0.2,0,0.3-0.1C11.6,12.6,11.7,12.5,11.7,12.4 M9.3,1.8 c0-0.1-0.1-0.2-0.2-0.2h-2c-0.1,0-0.2,0.1-0.2,0.2C6.9,1.9,6.9,2,7.1,2h2C9.2,2,9.3,1.9,9.3,1.8 M8.8,15.1c0.2-0.2,0.3-0.4,0.3-0.7 S9,13.9,8.8,13.7c-0.2-0.2-0.4-0.3-0.7-0.3c-0.3,0-0.5,0.1-0.7,0.3c-0.2,0.2-0.3,0.4-0.3,0.7s0.1,0.5,0.3,0.7 c0.2,0.2,0.4,0.3,0.7,0.3C8.4,15.4,8.6,15.3,8.8,15.1"/>
	</symbol>
	<symbol class="i" id="globe" width="100%" height="100%" viewBox="0 0 16 16">
		<path d="M4 1.2C5.2.5 6.5.1 8 .1c1.4 0 2.7.4 4 1.1 1.2.7 2.2 1.7 2.9 2.9.7 1.2 1.1 2.5 1.1 4 0 1.4-.4 2.7-1.1 4-.7 1.2-1.7 2.2-2.9 2.9-1.2.7-2.5 1.1-4 1.1-1.4 0-2.7-.4-4-1.1-1.2-.7-2.2-1.7-2.9-2.9C.4 10.9 0 9.6 0 8.1c0-1.4.4-2.7 1.1-4C1.9 2.8 2.8 1.9 4 1.2m6.8 4.3c-.1.2-.2.2-.2.2v-.1s0-.1.1-.1v-.1l.2-.2c.1 0 .3-.1.5-.1.2-.1.4 0 .5.1 0 0 0-.1.1-.1.2 0 .2-.1.2-.1h.2c.1 0 .1 0 .2-.1v-.2c-.1 0-.1 0-.2-.1 0-.1-.1-.1-.1-.2l-.1.1v-.1h-.1-.1c-.1 0-.1 0-.2-.1 0 0-.1-.1-.1-.2v-.2s0-.1-.1-.1-.1-.1-.1-.1v-.1-.1-.1h-.1l-.1.1-.1.1v.1h-.1-.1-.1-.1c.1 0 .1-.1 0-.1h-.2c.1 0 .1-.1.1-.1 0-.1 0-.1-.1-.1h.1s0-.1-.1-.1-.1-.1-.2-.1-.1 0-.1-.1c-.1 0-.2-.1-.3-.1h-.3s-.1.1 0 .1v.2s0 .1-.1.1l-.1.1s0 .1.1.2c.1.3.2.4.1.5 0 .1-.1.1-.2.2h-.1v.2c0 .1.1.1.1.2h-.1-.1c-.1.2-.1.2-.2.1-.1 0-.1-.1-.1-.2 0-.2-.1-.3-.2-.3-.2-.1-.3 0-.3 0 0-.1-.2-.2-.4-.3-.2-.1-.4-.1-.6 0v-.2c0-.1-.1-.1-.2-.1v-.2-.1c0-.1.1-.2.1-.2l.1-.1c.1-.1.1-.2.1-.2v-.1c.2 0 .4 0 .5-.1 0 0 .1-.1.1-.2s.1-.1.1-.2c.1 0 .1-.1.1-.1s.1 0 .1.1c.1 0 .1.1.1.1.1 0 .1 0 .2-.1 0-.1 0-.2-.1-.2.3 0 .3 0 .2-.2l-.1-.1c-.1 0-.2 0-.3.1-.1 0 0 .1 0 .1l-.1.1c0 .1 0 .1-.1.2-.1 0-.1 0-.2-.1 0 0 0-.1-.1-.1.1-.1.1-.2 0-.2 0 0-.1.1-.1.2 0-.1 0-.1-.1-.2h-.3c.1-.1.1-.2-.1-.3 0 0-.1 0-.2-.1H7l-.1.1s0 .1.1.1c0 0 .1 0 .1.1h.2l.1.1h-.1-.1-.1v.2S7 2.1 7 2s0-.1-.1-.2c0 .1 0 .1-.3.1h-.1-.4c-.1 0-.1 0-.1-.1v-.2c.1.4 0 .3 0 .3l-.1-.1c-.3.1-.6.2-1 .4H5s.1 0 .1-.1c.1 0 .1 0 .1-.1h.6l.2.2h-.3c-.1 0-.2.1-.2.1 0 .1.1.1.1.2l-.1-.1c-.1 0-.1-.1-.1-.1s-.1 0-.2-.1H5c-1.1.6-2 1.4-2.6 2.3l.1.1v.2h.1c.1.1.1.1 0 .2 0 0 .2.1.5.3l.2.2c0 .1 0 .1-.1.2l-.1-.1c-.1 0-.1-.1-.1 0v.2c0 .1.1.1.1.1S3 6 3 6.1V6.7c0 .1 0 .2.1.4s.1.2.2.2c-.1 0 0 .2.2.4 0 .1.1.1.1.1s.1 0 .1.1c.2-.1.3 0 .3 0l.1.1s.1.1.1.2.1.2.1.2 0 .1.1.2.1.2.1.2.1.1.2.1.1.1.2.1v.2H5c0-.1-.1-.3-.2-.6-.2 0-.2-.1-.3-.1 0 0 0-.1-.1-.2v-.1H4.7v.2c0 .1.1.1.1.2s.1.1.2.2l.1.2s.1.1.1.2c.1.1.1.1 0 .1.1 0 .1 0 .2.1l.2.2c0 .1.1.1.1.3v.2c0 .1 0 .1.1.1l.1.1s.1 0 .2.1c.1 0 .1.1.1.1s.1.1.2.1c.1.1.2.1.2.1H7c.1 0 .2 0 .3.2l.2.2c.2.1.4.2.6.1v.1s0 .1.1.2l.1.1s0 .1.1.1l.2.2c.1 0 .2.1.2.1l.1-.1c0 .1 0 .1.1.2s.1.1.2.1.1-.1.1-.3c-.2.1-.4 0-.5-.2v-.1-.1-.1-.1H9v-.1-.1c0-.1 0-.1-.1-.2s-.1-.1-.1-.2c0 .1-.1.1-.2.1s-.1 0-.2-.1v.2h-.2v-.2-.2s0-.1.1-.1c0-.1.1-.1.1-.1v-.1-.1h-.2c-.1 0-.2.1-.3.2v.1c0 .1 0 .1-.1.1 0 0 0 .1-.1.1h-.2c-.1 0-.2 0-.2-.1-.3-.2-.3-.3-.4-.4-.1-.2-.1-.3-.1-.4v-.3-.3c0-.1 0-.1-.1-.2 0 0 .1 0 .1-.1.1 0 .2-.1.2-.1v-.1h.6c.1.1.2.1.2 0v-.1-.1c0 .2.1.2.3.1 0 0 .1 0 .2.1.1 0 .1 0 .2.1l.1.1h.2s.1 0 .1-.1c.1.1.1.2.1.2 0 .2 0 .3.1.3h.1v-.1V9v-.5c-.1 0-.2 0-.2-.1v-.2c0-.1.1-.1.2-.2h.1s.1 0 .2-.1c.1 0 .1-.1.1-.1.1-.1.2-.2.2-.4 0 0 .1 0 .1-.1 0 0-.1 0-.1-.1.1 0 .1-.1 0-.2l.1-.1c0-.1 0-.1.1-.1-.1.2-.1.2 0 .1 0-.1.1-.1 0-.2 0 0 .1-.1.2-.1s.2-.1.2-.1h.1v-.1-.1s.1-.1.2-.1.1 0 .1-.1L11 6c.1 0 .2 0 .3-.1.1-.1 0-.1-.1-.2v-.1s-.1 0-.2-.1h.2c.1-.1.1-.1-.1-.2 0 0-.1.1-.3.2m-1.7 9c1.4-.2 2.6-.9 3.6-1.9h-.2c-.1 0-.2-.1-.2-.1v-.1l-.1-.1s-.1 0-.1-.1c-.1 0-.1-.1-.1-.1l-.1-.1s-.1 0-.1-.1h-.1-.1-.1-.1-.1c-.1-.1-.3-.2-.4-.2 0 0-.1 0-.1-.1l-.1-.1h-.1s-.1 0-.1.1c0 0-.1.1-.1.2v.1c-.1 0-.1-.1 0-.2 0-.1.1-.1 0-.2 0 0-.1-.1-.1 0h-.1l-.1.1-.1.1-.1.1-.1.1s0 .1-.1.1c0 .1 0 .1-.1.1 0 0-.1 0-.1-.1-.1 0-.1 0-.1-.1v.4c0 .2 0 .3.1.4 0 .2 0 .4-.1.5-.2.2-.3.3-.3.4 0 .2 0 .2.1.3 0 0 0 .1-.1.2s-.1.2-.1.2c.1 0 .1.1.1.2"/>
	</symbol>
	<symbol id="sleekArrow" width="100%" height="100%" viewBox="0 0 1000 1000">
		<path d="M307.3,10l490.3,490L307.7,990L202.4,884.8L587.2,500L202.4,115.3L307.3,10z"/>
	</symbol>
	<symbol id="mparticle" width="100%" height="100%" viewBox="0 0 256 116">
		<path d="M175.814 69.08c5.418 5.417 5.418 14.086 1.083 20.046-5.418 5.418-14.086 5.418-19.504 0l-.542-.542L143.85 75.58l-33.05 34.676c-2.71 2.71-5.96 4.334-9.752 4.334-3.793 0-7.044-1.625-9.753-4.334L58.243 75.58l-34.675 34.676c-2.71 2.71-6.5 3.793-9.752 3.793-3.793 0-7.044-1.085-9.753-3.794-5.417-5.418-5.417-14.087 0-19.505L48.49 45.783c2.71-2.167 5.96-3.793 9.753-3.793s7.044 1.625 9.753 4.334L101.046 81l33.05-34.676c2.708-2.71 5.96-4.335 9.752-4.335 3.792 0 7.043 1.625 9.752 4.334l22.214 22.755zm76.393-21.13c2.71 2.166 3.793 5.96 3.793 9.21 0 3.792-1.084 7.043-3.793 9.752l-44.97 44.97c-2.708 2.708-6.5 3.792-9.75 3.792h-1.627c-3.25 0-5.96-1.625-8.127-3.793-5.418-5.417-5.418-14.085 0-19.503l10.295-10.294 24.922-24.38-34.133-34.135c-5.418-5.418-5.418-14.087 0-19.505 5.418-5.417 14.087-5.417 19.505 0l43.885 43.886z"/>
	</symbol>
	<symbol id="instagramType" width="100%" height="100%" viewBox="0 0 512 146">
		<path d="M27.127.902C16.68 5.278 5.197 17.625 1.57 33.135-3.024 52.78 16.09 61.09 17.66 58.37c1.844-3.202-3.426-4.284-4.51-14.478C11.746 30.726 17.867 16.015 25.57 9.56c1.43-1.2 1.363.47 1.363 3.557 0 5.52-.305 55.085-.305 65.43 0 13.995-.578 18.415-1.617 22.783-1.05 4.425-2.743 7.416-1.462 8.568 1.433 1.288 7.547-1.777 11.086-6.716 4.244-5.924 5.73-13.04 5.997-20.765.322-9.314.308-24.094.322-32.524.012-7.73.13-30.37-.136-43.98-.066-3.34-9.324-6.842-13.693-5.01M398.07 66.405c-.337 7.277-1.948 12.964-3.947 16.976-3.87 7.768-11.9 10.18-15.31-.985-1.858-6.086-1.945-16.25-.61-24.743 1.36-8.65 5.158-15.185 11.445-14.596 6.202.583 9.105 8.574 8.422 23.35zM293.52 111.55c-.084 12.09-1.987 22.692-6.067 25.77-5.788 4.367-13.567 1.092-11.956-7.73 1.425-7.808 8.166-15.78 18.04-25.523 0 0 .02 2.222-.017 7.484zm-1.58-45.216c-.354 6.628-2.072 13.285-3.947 17.047-3.87 7.768-11.958 10.196-15.31-.985-2.292-7.64-1.743-17.526-.61-23.756 1.472-8.084 5.04-15.583 11.445-15.583 6.228 0 9.3 6.833 8.422 23.277zm-60.565-.1c-.38 7.018-1.75 12.885-3.946 17.147-3.977 7.715-11.843 10.16-15.312-.985-2.5-8.037-1.65-18.995-.61-24.915 1.545-8.785 5.41-15.013 11.446-14.423 6.2.606 9.212 8.573 8.42 23.177zm277.553 8.198c-1.515 0-2.207 1.562-2.78 4.19-1.983 9.144-4.07 11.207-6.76 11.207-3.004 0-5.704-4.527-6.398-13.59-.546-7.125-.458-20.243.24-33.292.142-2.68-.598-5.334-7.79-7.946-3.093-1.124-7.59-2.78-9.83 2.627-6.328 15.273-8.804 27.398-9.387 32.323-.03.255-.343.308-.397-.288-.372-3.945-1.2-11.115-1.305-26.177-.018-2.94-.64-5.44-3.885-7.488-2.105-1.33-8.496-3.68-10.797-.883-1.994 2.286-4.304 8.44-6.703 15.736-1.95 5.93-3.308 9.94-3.308 9.94s.026-15.998.05-22.067c.01-2.29-1.56-3.052-2.035-3.19-2.13-.618-6.33-1.65-8.112-1.65-2.2 0-2.738 1.227-2.738 3.018 0 .236-.347 21.064-.347 35.628 0 .633 0 1.323.003 2.057-1.216 6.693-5.16 15.78-9.45 15.78-4.297 0-6.323-3.8-6.323-21.162 0-10.13.304-14.534.453-21.86.087-4.22.255-7.46.245-8.195-.032-2.255-3.93-3.392-5.745-3.812-1.823-.422-3.407-.587-4.644-.516-1.75.1-2.99 1.247-2.99 2.827 0 .85.01 2.46.01 2.46-2.255-3.545-5.882-6.01-8.295-6.726-6.5-1.93-13.283-.22-18.4 6.94-4.065 5.686-6.516 12.13-7.48 21.384-.706 6.767-.476 13.628.778 19.43-1.515 6.55-4.326 9.232-7.405 9.232-4.47 0-7.71-7.295-7.334-19.913.247-8.3 1.908-14.123 3.723-22.55.774-3.59.145-5.47-1.432-7.273-1.446-1.653-4.528-2.498-8.96-1.46-3.155.74-7.668 1.538-11.797 2.15 0 0 .25-.995.454-2.747 1.074-9.19-8.913-8.445-12.1-5.51-1.9 1.753-3.196 3.82-3.687 7.536-.78 5.898 4.03 8.68 4.03 8.68-1.577 7.224-5.446 16.66-9.44 23.483-2.14 3.655-3.775 6.364-5.888 9.243-.007-1.073-.013-2.146-.017-3.213-.048-15.187.154-27.14.243-31.448.087-4.22.256-7.375.247-8.11-.024-1.65-.987-2.273-2.99-3.062-1.772-.697-3.866-1.18-6.04-1.348-2.74-.213-4.393 1.24-4.35 2.96.01.325.01 2.32.01 2.32-2.256-3.545-5.883-6.01-8.296-6.726-6.5-1.93-13.283-.22-18.4 6.94-4.064 5.686-6.726 13.668-7.48 21.314-.703 7.125-.574 13.18.384 18.282-1.033 5.108-4.005 10.45-7.364 10.45-4.296 0-6.74-3.8-6.74-21.162 0-10.13.304-14.534.454-21.86.087-4.22.254-7.46.245-8.195-.033-2.255-3.932-3.39-5.747-3.812-1.898-.438-3.537-.6-4.796-.506-1.66.123-2.828 1.61-2.828 2.72v2.555c-2.256-3.545-5.883-6.01-8.296-6.726-6.5-1.93-13.244-.192-18.398 6.94-3.36 4.648-6.08 9.802-7.48 21.212-.406 3.297-.585 6.386-.56 9.27-1.34 8.197-7.26 17.643-12.102 17.643-2.833 0-5.532-5.497-5.532-17.208 0-15.6.966-37.812 1.13-39.952 0 0 6.117-.104 7.3-.118 3.053-.034 5.816.04 9.88-.17 2.04-.103 4.003-7.42 1.9-8.325-.955-.41-7.694-.768-10.366-.825-2.246-.05-8.5-.514-8.5-.514s.56-14.743.692-16.3c.11-1.3-1.57-1.967-2.532-2.372-2.342-.99-4.437-1.465-6.92-1.977-3.432-.71-4.988-.016-5.292 2.88-.458 4.394-.695 17.267-.695 17.267-2.52 0-11.12-.492-13.64-.492-2.34 0-4.865 10.064-1.63 10.188 3.723.144 10.21.27 14.51.398 0 0-.192 22.58-.192 29.55 0 .742.004 1.456.008 2.15-2.367 12.334-10.703 18.998-10.703 18.998 1.79-8.16-1.867-14.29-8.454-19.478-2.428-1.91-7.22-5.53-12.58-9.496 0 0 3.105-3.06 5.86-9.216 1.95-4.362 2.034-9.35-2.755-10.452-7.912-1.82-14.435 3.99-16.38 10.195-1.51 4.807-.705 8.372 2.25 12.076.214.27.448.548.69.826-1.786 3.442-4.24 8.077-6.318 11.67-5.768 9.98-10.125 17.873-13.418 17.873-2.633 0-2.598-8.014-2.598-15.517 0-6.468.478-16.193.86-26.26.126-3.33-1.54-5.227-4.33-6.945-1.696-1.044-5.315-3.096-7.41-3.096-3.14 0-12.19.427-20.743 25.167-1.08 3.118-3.197 8.8-3.197 8.8l.183-29.75c0-.7-.372-1.373-1.223-1.834-1.44-.783-5.29-2.383-8.713-2.383-1.63 0-2.445.758-2.445 2.27l-.298 46.546c0 3.537.092 7.663.442 9.467.347 1.806.912 3.276 1.61 4.15.7.873 1.506 1.54 2.837 1.814 1.24.255 8.023 1.126 8.376-1.466.422-3.108.44-6.468 4-19.002C75.89 58.072 83.12 48.552 86.52 45.17c.595-.59 1.273-.626 1.24.34-.144 4.28-.655 14.97-.998 24.052-.92 24.304 3.5 28.81 9.82 28.81 4.833 0 11.647-4.804 18.95-16.962 4.555-7.577 8.977-15.006 12.154-20.36 2.213 2.05 4.698 4.254 7.18 6.61 5.77 5.476 7.664 10.68 6.407 15.616-.96 3.773-4.58 7.662-11.024 3.883-1.88-1.104-2.68-1.957-4.57-3.2-1.013-.667-2.562-.867-3.49-.167-2.413 1.818-3.793 4.132-4.58 6.996-.767 2.786 2.024 4.26 4.918 5.548 2.49 1.11 7.846 2.114 11.26 2.228 13.305.445 23.964-6.424 31.384-24.143 1.328 15.303 6.98 23.962 16.8 23.962 6.567 0 13.15-8.487 16.03-16.836.825 3.402 2.048 6.362 3.628 8.865 7.568 11.99 22.248 9.41 29.622-.772 2.28-3.146 2.627-4.276 2.627-4.276 1.075 9.613 8.817 12.972 13.25 12.972 4.964 0 10.09-2.348 13.682-10.436.42.878.88 1.717 1.383 2.51 7.567 11.99 22.248 9.41 29.622-.77.348-.48.65-.912.913-1.3l.216 6.314s-4.206 3.86-6.79 6.227c-11.38 10.43-20.023 18.34-20.66 27.553-.808 11.747 8.713 16.113 15.927 16.685 7.647.607 14.208-3.62 18.234-9.538 3.544-5.21 5.864-16.42 5.693-27.49-.067-4.434-.18-10.07-.267-16.114 3.995-4.638 8.496-10.502 12.64-17.364 4.516-7.48 9.356-17.523 11.834-25.34 0 0 4.205.037 8.693-.257 1.435-.095 1.848.198 1.582 1.25-.32 1.272-5.67 21.905-.787 35.65 3.34 9.41 10.874 12.436 15.34 12.436 5.23 0 10.23-3.948 12.91-9.81.324.653.66 1.285 1.03 1.87 7.567 11.99 22.196 9.393 29.622-.773 1.676-2.294 2.627-4.276 2.627-4.276 1.593 9.95 9.33 13.023 13.763 13.023 4.616 0 8.998-1.893 12.552-10.304.148 3.704.382 6.732.75 7.686.226.585 1.538 1.317 2.492 1.67 4.224 1.567 8.53.827 10.124.505 1.104-.224 1.965-1.11 2.083-3.396.308-6.004.118-16.093 1.94-23.592 3.054-12.583 5.905-17.464 7.257-19.88.757-1.355 1.61-1.578 1.64-.145.065 2.9.21 11.413 1.393 22.853.87 8.412 2.03 13.385 2.923 14.96 2.548 4.5 5.693 4.713 8.255 4.713 1.63 0 5.038-.45 4.733-3.315-.148-1.396.112-10.024 3.125-22.42 1.967-8.097 5.247-15.41 6.43-18.086.437-.987.64-.21.632-.058-.25 5.575-.808 23.81 1.463 33.785 3.08 13.51 11.986 15.023 15.09 15.023 6.626 0 12.045-5.04 13.87-18.302.44-3.192-.21-5.656-2.162-5.656z"/>
	</symbol>
	<symbol id="wire" width="100%" height="100%" viewBox="0 0 512 174">
		<path d="M198.232 108.467c0 29.008-23.36 52.607-52.395 52.607-11.694 0-22.605-3.876-31.353-10.345 9.782-11.376 15.606-26.126 15.606-42.263l.02-83.71C130.11 11.107 118.996 0 105.333 0c-13.663 0-24.78 11.106-24.78 24.757l-.02 83.71c0 16.137 6.215 30.887 15.997 42.262-8.75 6.468-19.66 10.344-31.355 10.344-29.035 0-52.786-23.6-52.786-52.607V6.347H0v102.12c0 35.832 29.44 64.985 65.306 64.985 15.206 0 29.308-5.28 40.396-14.047 11.088 8.768 24.865 14.047 40.07 14.047 35.867 0 64.85-29.153 64.85-64.985V6.347h-12.39v102.12zm-92.92 33.83c-7.72-9.155-12.39-20.952-12.39-33.83l.02-83.71c0-6.827 5.558-12.378 12.39-12.378 6.83 0 12.39 5.55 12.39 12.377l-.022 83.71c0 12.878-4.672 24.675-12.39 33.83zm142.498 27.876h12.39V6.013h-12.39v164.16zM368.668 3.15c-24.448 0-46.06 12.36-58.91 31.15V6.014h-12.39v164.16h12.39V74.396h.006c0-32.447 26.424-58.844 58.904-58.844V3.15zm31.982 140.825l51.266-51.266L512 32.623c-1.342-1.55-2.747-3.067-4.22-4.54-33.21-33.21-87.25-33.21-120.46 0-33.21 33.21-33.21 87.25 0 120.46 33.207 33.206 87.233 33.21 120.446.014l-8.76-8.76c-26.907 26.89-69.794 28.28-98.356 4.177zm-4.57-107.13c26.906-26.904 69.803-28.3 98.37-4.192l-102.56 102.56c-24.107-28.567-22.713-71.464 4.19-98.368z"/>
	</symbol>
	<symbol id="stylus" width="100%" height="100%" viewBox="0 0 512 315">
		<path d="M78.91 244.604c13.28-15.884 14.84-32.29 4.556-62.755-6.51-19.27-17.317-34.113-9.375-46.09 8.464-12.76 26.432-.39 11.46 16.664l2.993 2.084c17.968 2.083 26.82-22.525 13.41-29.555-35.413-18.488-66.4 17.056-52.73 58.198 5.86 17.447 14.062 35.935 7.422 50.648-5.73 12.63-16.795 20.05-24.217 20.31-15.493.782-5.207-34.762 12.63-43.616 1.562-.78 3.775-1.822 1.692-4.426-22.003-2.474-34.893 7.68-42.314 21.873-21.613 41.27 41.012 56.504 74.473 16.664zM465.593 123.26c5.078 12.5 12.76 24.868 8.203 35.804-3.776 9.375-8.724 13.28-14.192 14.192-7.68 1.302-5.598-22.785 7.552-29.945 1.17-.65 2.864-3.775 1.302-5.598-16.667-.91-26.04 7.03-31.12 17.577-14.71 30.855 33.332 39.318 56.898 8.982 9.374-12.108 9.764-24.086.78-45.83-5.728-13.8-14.45-24.086-8.983-33.2 5.86-9.634 19.92-1.3 9.374 11.588l2.343 1.302c13.67.78 19.27-17.446 8.853-22.003-27.47-11.72-53.12 17.836-41.012 47.13zM291.65 90.32c-9.503-7.55-36.194 5.078-43.745 23.826-9.505 23.826-23.566 58.59-37.367 73.822-14.582 16.014-16.014 3.646-14.582-5.598 3.385-21.743 24.607-72.13 36.195-86.32-4.296-6.38-32.418-5.47-51.948 24.867-7.29 11.457-23.956 49.605-42.444 79.68-4.036 6.51-9.114 1.953-5.208-13.28 4.427-17.576 17.446-65.88 34.242-103.897 44.006-8.723 90.747-14.843 126.55-14.973 4.82-1.302 8.074-5.598 0-5.86-30.855-1.04-77.205 2.605-120.56 8.074 8.332-16.665 17.315-29.945 26.43-35.543-9.896-6.25-29.946-3.776-41.404 13.15-5.077 7.55-10.155 16.665-14.972 26.56-31.77 4.947-58.98 10.546-72.78 15.754-14.322 5.47-12.76 22.785-4.037 19.53 18.097-6.77 42.574-13.8 69.785-20.05-17.316 39.06-30.857 85.15-34.112 103.897-8.072 45.57 20.18 45.31 33.982 27.342 14.972-19.66 46.22-88.796 51.037-96.087 1.432-2.474 3.385-1.172 2.344 1.042-34.893 69.655-31.9 96.606-3.646 90.617 12.76-2.734 34.763-24.607 40.49-35.934 1.173-2.735 3.647-2.474 3.126-1.302-22.133 57.417-50.256 103.897-69.135 118.48-17.185 13.15-29.944-15.364 30.858-56.246 8.984-6.12 4.817-14.452-5.338-11.588-31.377 4.948-121.213 33.46-160.663 60.802-2.995 2.083-5.73 3.776-5.6 8.073.132 2.473 4.428 1.562 6.51.26 51.038-30.596 92.832-42.575 140.744-52.6.652.26 1.433.39 2.084.13 2.214-.52 2.084.65.65 1.563-3.254 1.823-6.508 3.515-7.29 3.776-32.29 12.63-51.818 40.49-44.918 54.682 5.86 12.24 37.497 7.812 52.47-.26 36.715-19.92 63.406-58.98 81.633-112.88 15.883-47.783 35.934-101.945 40.62-103.508zm213.394 110.277c-59.76-7.812-188.656 2.604-245.552 17.707-16.925 4.427-12.238 13.41-3.645 11.718.13 0 3.775-.912 3.906-.912 46.74-9.113 160.142-17.055 226.282-4.426 7.942 1.432 31.768-22.394 19.01-24.087zm-196.728-7.03c16.665-8.333 41.403-59.89 57.677-88.144 1.172-2.083 3.255-.39 2.084 1.042-41.143 70.827-23.696 79.03-7.422 77.988 21.743-1.302 41.794-32.55 46.22-39.58 1.823-2.734 2.865-.52 1.823 1.432-1.04 3.255-4.817 8.984-8.333 16.796-4.947 11.067.26 15.364 4.557 17.317 6.77 3.255 25.26 1.172 28.123-10.156-18.488-.39 25.78-87.62 30.336-92.96-12.368-7.16-31.507.652-40.23 17.838-18.618 36.845-34.242 66.53-44.007 67.05-19.008 1.043 21.873-82.153 28.514-84.757-4.037-5.858-29.946-3.384-44.398 19.01-5.21 8.072-36.977 64.317-44.788 73.56-13.8 16.406-14.843 2.345-10.937-14.06 1.302-5.6 3.515-12.76 6.38-20.702 9.113-20.57 18.878-27.08 24.867-33.72 40.23-44.658 63.276-80.853 54.162-95.045-8.072-12.63-35.023-7.03-52.34 19.01-31.897 47.782-61.322 113.27-65.098 143.216-3.645 29.944 18.098 32.158 32.81 24.867zm16.926-87.623c1.432-3.255 2.343-4.166 4.817-9.635 14.32-31.508 32.288-64.71 44.657-80.202 7.68-8.072 18.488 2.864-1.042 32.81-11.457 17.706-24.477 33.98-38.668 48.303v.13c-3.646 4.037-6.9 7.422-8.333 9.375-1.042 1.302-2.213 1.042-1.432-.78z"/>
	</symbol>
	<symbol id="ibm" width="100%" height="100%" viewBox="0 0 512 205">
		<path d="M0 0v14.012h99.66V0H0zm113.78 0v14.012H255.8S241.293 0 222.08 0h-108.3zm169.88 0v14.012h85.92L364.48 0h-80.82zm147.52 0l-5.1 14.012h85.14V0h-80.04zM0 27.25v14.012h99.66V27.25H0zm113.78.02v13.992h158.5s-1.85-10.784-5.08-13.992H113.78zm169.88 0v13.992H379l-4.72-13.992h-90.62zm137.32 0l-4.72 13.992h94.96V27.27h-90.24zM28.64 54.5v14.03H71.8V54.5H28.64zm113.78 0v14.03h43.16V54.5h-43.16zm85.14 0v14.03h43.16s2.74-7.41 2.74-14.03h-45.9zm84.74 0v14.03h76.52l-5.1-14.03H312.3zm99.28 0l-5.12 14.03h76.9V54.5h-71.78zM28.64 81.77v14.01H71.8V81.77H28.64zm113.78 0v14.01h110.24s9.222-7.19 12.16-14.01h-122.4zm169.88 0v14.01h43.16v-7.8l2.74 7.8h79.06l2.94-7.8v7.8h43.16V81.77h-81.02l-4.3 11.868-4.32-11.87H312.3zM28.64 109.02v14.01H71.8v-14.01H28.64zm113.78 0v14.01h122.4c-2.94-6.8-12.16-14.01-12.16-14.01H142.42zm169.88 0v14.01h43.16v-14.01H312.3zm51 0l5.22 14.01h59.28l4.96-14.01H363.3zm76.9 0v14.01h43.16v-14.01H440.2zM28.64 136.27v14.01H71.8v-14.01H28.64zm113.78 0v14.01h43.16v-14.01h-43.16zm85.14 0v14.01h45.9c0-6.612-2.74-14.01-2.74-14.01h-43.16zm84.74 0v14.01h43.16v-14.01H312.3zm60.8 0l5.06 14.01h39.74l5.1-14.01h-49.9zm67.1 0v14.01h43.16v-14.01H440.2zM.78 163.517v14.032h99.66v-14.032H.78zm113 0v14.032H267.2c3.23-3.213 5.08-14.032 5.08-14.032h-158.5zm170.66 0v14.032h71.02v-14.032h-71.02zm98.48 0l5.2 14.032h20.22l4.88-14.032h-30.3zm57.28 0v14.032H512v-14.032h-71.8zM.78 190.788V204.8h99.66v-14.012H.78zm113 0v13.992h108.3c19.213 0 33.72-13.992 33.72-13.992H113.78zm170.66 0V204.8h71.02v-14.012h-71.02zm108.34 0l5 13.972.86.02 5.08-13.992h-10.94zm47.42 0V204.8H512v-14.012h-71.8z"/>
	</symbol>
	<symbol id="netuitive" width="100%" height="100%" viewBox="0 0 256 165">
		<path d="M131.432 57.982l33.6 40.567 28.4-48.657C191.258 43.128 175.323 0 122.828 0c-50.81 0-74.167 45.484-68.43 81.134C49.59 77.128 2.13 79.804 0 120.88h92.94l38.492-62.898zm80.79-6.108l-49.852 85.602-36.06-40.566-23.586 41.18H1.886c8.86 28.832 44.316 26.636 44.316 26.636h133.992S256 166.774 256 105.72c0-39.013-25.416-50.573-43.778-53.846z"/>
	</symbol>

	<symbol viewBox="0 0 66 66" id="lock">
		<path fill="#FFF" stroke="#52C3DD" stroke-width="2" stroke-linecap="round" stroke-linejoin="round" d="M56 60H36c-4.4 0-8-3.6-8-8V32c0-1.1.9-2 2-2h32c1.1 0 2 .9 2 2v20c0 4.4-3.6 8-8 8z"/>
		<path fill="none" stroke="#52C3DD" stroke-width="2" stroke-linecap="round" stroke-linejoin="round" d="M58 30V15c0-5-4-9-9-9h-5c-5.5 0-10 4.5-10 10v6"/>
		<circle fill="#92E4A1" stroke="#69CE73" stroke-width="2" stroke-linecap="round" stroke-miterlimit="10" cx="46" cy="42" r="3.5"/>
		<path fill="#92E4A1" stroke="#69CE73" stroke-width="2" stroke-linecap="round" stroke-miterlimit="10" d="M46 46v5"/>
	</symbol>
	<symbol viewBox="0 0 66 66" id="tower">
		<path fill="none" stroke="#52C3DD" stroke-width="2" stroke-linecap="round" stroke-linejoin="round" d="M37.7 32.9l-9.9 26.6M53 59.5l-9.9-26.6M54.3 36.7c1-2.1 1.6-4.4 1.6-6.8 0-8.5-6.9-15.4-15.4-15.4S25.1 21.3 25 29.7v.3c0 2.3.5 4.7 1.6 6.8"/>
		<path fill="none" stroke="#52C3DD" stroke-width="2" stroke-linecap="round" stroke-linejoin="round" d="M59.5 43.8c7.6-10.5 5.2-25.3-5.3-32.9-9.3-6.7-22.2-5.7-30.4 2.4-4.4 4.4-6.9 10.4-6.8 16.7 0 5 1.6 9.8 4.5 13.8M46 42.8H34M49 51.8H31"/>
		<circle fill="#92E4A1" stroke="#69CE73" stroke-width="2" stroke-linecap="round" stroke-miterlimit="10" cx="40.4" cy="29" r="4"/>
	</symbol>
	<symbol viewBox="0 0 66 66" id="abacus">
		<path fill="#FFF" stroke="#52C3DD" stroke-width="2" stroke-linecap="round" stroke-linejoin="round" d="M61.8 59.7h-46c-1.1 0-2-.9-2-2v-2c0-1.1.9-2 2-2h46c1.1 0 2 .9 2 2v2c0 1.1-.9 2-2 2zM19.8 40.7h39M19.8 27.7h39M19.8 14.7h39"/>
		<path fill="#92E4A1" stroke="#69CE73" stroke-width="2" stroke-linecap="round" stroke-miterlimit="10" d="M29.8 18.7h-2c-.5 0-1-.4-1-.9v-6.1c0-.5.4-1 .9-1h2.1c.5 0 1 .4 1 .9v6.1c0 .5-.4 1-.9 1h-.1z"/>
		<path fill="#FFF" stroke="#52C3DD" stroke-width="2" stroke-linecap="round" stroke-linejoin="round" d="M37.8 18.7h-2c-.5 0-1-.4-1-.9v-6.1c0-.5.4-1 .9-1h2.1c.5 0 1 .4 1 .9v6.1c0 .5-.4 1-1 1z"/>
		<path fill="#92E4A1" stroke="#69CE73" stroke-width="2" stroke-linecap="round" stroke-miterlimit="10" d="M45.8 18.7h-2c-.5 0-1-.4-1-.9v-6.1c0-.5.4-1 .9-1h2.1c.5 0 1 .4 1 .9v6.1c0 .5-.4 1-1 1z"/>
		<path fill="#FFF" stroke="#52C3DD" stroke-width="2" stroke-linecap="round" stroke-linejoin="round" d="M29.8 31.7h-2c-.5 0-1-.4-1-.9v-6.1c0-.5.4-1 .9-1h2.1c.5 0 1 .4 1 .9v6.1c0 .5-.4 1-.9 1h-.1z"/>
		<path fill="#92E4A1" stroke="#69CE73" stroke-width="2" stroke-linecap="round" stroke-miterlimit="10" d="M45.8 31.7h-2c-.5 0-1-.4-1-.9v-6.1c0-.5.4-1 .9-1h2.1c.5 0 1 .4 1 .9v6.1c0 .5-.4 1-1 1zM37.8 44.7h-2c-.5 0-1-.4-1-.9v-6.1c0-.5.4-1 .9-1h2.1c.5 0 1 .4 1 .9v6.1c0 .5-.4 1-1 1z"/>
		<path fill="#FFF" stroke="#52C3DD" stroke-width="2" stroke-linecap="round" stroke-linejoin="round" d="M45.8 44.7h-2c-.5 0-1-.4-1-.9v-6.1c0-.5.4-1 .9-1h2.1c.5 0 1 .4 1 .9v6.1c0 .5-.4 1-1 1zM18.8 6.7v46M58.8 6.7v46"/>
	</symbol>

</svg>
