<svg xmlns="http://www.w3.org/2000/svg" width="648.143" height="538" viewBox="0 0 648.143 538">
	<path d="M500.517 170.078c0 93.926-76.146 170.074-170.078 170.074-93.935 0-170.08-76.148-170.08-170.074C160.36 76.146 236.506 0 330.44 0c93.932 0 170.077 76.146 170.077 170.078z"/>
	<path fill="#FFF" d="M214.79 147.366c-12.546 0-22.71 10.166-22.71 22.712 0 12.54 10.164 22.705 22.71 22.705 12.54 0 22.706-10.165 22.706-22.705 0-12.546-10.165-22.712-22.705-22.712zM376.92 250.57c-10.862 6.273-14.586 20.153-8.312 31.008 6.266 10.86 20.146 14.584 31.007 8.31 10.86-6.265 14.584-20.145 8.31-31.007-6.265-10.853-20.153-14.576-31.006-8.31zm-112.806-80.492c0-22.44 11.146-42.265 28.2-54.27l-16.6-27.805c-19.867 13.28-34.65 33.573-40.792 57.34 7.168 5.85 11.756 14.753 11.756 24.734 0 9.975-4.588 18.88-11.756 24.728 6.135 23.774 20.917 44.068 40.792 57.348l16.6-27.812c-17.054-11.997-28.2-31.82-28.2-54.262zm66.325-66.332c34.65 0 63.077 26.567 66.06 60.448l32.357-.477c-1.592-25.013-12.52-47.468-29.31-63.98-8.633 3.262-18.606 2.763-27.226-2.206-8.634-4.982-14.048-13.388-15.528-22.513-8.392-2.316-17.224-3.584-26.355-3.584-15.697 0-30.538 3.687-43.715 10.21l15.778 28.273c8.488-3.95 17.957-6.17 27.94-6.17zm0 132.657c-9.983 0-19.452-2.22-27.94-6.17l-15.777 28.273c13.177 6.53 28.018 10.218 43.716 10.218 9.13 0 17.962-1.27 26.353-3.592 1.48-9.125 6.896-17.523 15.53-22.515 8.625-4.977 18.592-5.467 27.226-2.205 16.79-16.512 27.716-38.967 29.308-63.98l-32.364-.477c-2.977 33.89-31.404 60.448-66.055 60.448zm46.47-146.83c10.862 6.27 24.743 2.556 31.01-8.305 6.272-10.86 2.557-24.742-8.305-31.016-10.86-6.266-24.74-2.543-31.016 8.318-6.266 10.855-2.543 24.736 8.31 31.002z"/>
</svg>